<?xml version="1.0" standalone="no"?><!DOCTYPE svg PUBLIC "-//W3C//DTD SVG 1.1//EN" "http://www.w3.org/Graphics/SVG/1.1/DTD/svg11.dtd"><svg width="200" height="200" viewBox="0 0 200 200" version="1.1" xmlns="http://www.w3.org/2000/svg" xmlns:xlink="http://www.w3.org/1999/xlink"><defs><style type="text/css"><![CDATA[
@font-face { font-family: ifont; src: url("//at.alicdn.com/t/font_1442373896_4754455.eot?#iefix") format("embedded-opentype"), url("//at.alicdn.com/t/font_1442373896_4754455.woff") format("woff"), url("//at.alicdn.com/t/font_1442373896_4754455.ttf") format("truetype"), url("//at.alicdn.com/t/font_1442373896_4754455.svg#ifont") format("svg"); }

]]></style></defs><g class="transform-group"><g transform="scale(0.1953125, 0.1953125)"><path d="M717.696 59.456 306.304 59.456c-45.44 0-82.304 36.864-82.304 82.304l0 740.608c0 45.44 36.864 82.24 82.304 82.24l411.392 0c45.44 0 82.304-36.8 82.304-82.24L800 141.696C800 96.256 763.136 59.456 717.696 59.456zM450.304 100.544l123.456 0c11.328 0 20.608 9.28 20.608 20.608 0 11.328-9.28 20.544-20.608 20.544L450.304 141.696c-11.392 0-20.544-9.28-20.544-20.544C429.696 109.824 438.912 100.544 450.304 100.544zM512 923.456c-22.72 0-41.152-18.432-41.152-41.152 0-22.72 18.432-41.216 41.152-41.216s41.152 18.432 41.152 41.216C553.152 905.024 534.72 923.456 512 923.456zM717.696 800 306.304 800 306.304 182.848l411.392 0L717.696 800z" fill="#272636"></path></g></g></svg>