<?xml version="1.0" standalone="no"?><!DOCTYPE svg PUBLIC "-//W3C//DTD SVG 1.1//EN" "http://www.w3.org/Graphics/SVG/1.1/DTD/svg11.dtd"><svg width="200" height="200" viewBox="0 0 200 200" version="1.1" xmlns="http://www.w3.org/2000/svg" xmlns:xlink="http://www.w3.org/1999/xlink"><defs><style type="text/css"><![CDATA[
@font-face { font-family: ifont; src: url("//at.alicdn.com/t/font_1442373896_4754455.eot?#iefix") format("embedded-opentype"), url("//at.alicdn.com/t/font_1442373896_4754455.woff") format("woff"), url("//at.alicdn.com/t/font_1442373896_4754455.ttf") format("truetype"), url("//at.alicdn.com/t/font_1442373896_4754455.svg#ifont") format("svg"); }

]]></style></defs><g class="transform-group"><g transform="scale(0.1953125, 0.1953125)"><path d="M810.666667 938.666667 213.333333 938.666667c-46.933333 0-85.333333-38.4-85.333333-85.333333L128 256c0-46.933333 38.4-85.333333 85.333333-85.333333l178.346667 0C409.6 121.173333 456.533333 85.333333 512 85.333333s102.4 35.84 120.32 85.333333L810.666667 170.666667c46.933333 0 85.333333 38.4 85.333333 85.333333l0 597.333333C896 900.266667 857.6 938.666667 810.666667 938.666667zM213.333333 721.664 213.333333 810.666667l213.674667 0 0-80.085333c0-30.250667 19.84-83.285333 84.821333-123.52-27.733333-6.4-54.485333-9.984-75.52-9.984C362.112 597.12 213.333333 638.762667 213.333333 721.664zM340.821333 469.418667c0 47.274667 38.229333 85.418667 85.589333 85.418667 47.36 0 85.290667-38.144 85.290667-85.418667S473.770667 384 426.410667 384C379.050667 384 340.821333 422.144 340.821333 469.418667zM512 170.666667c-23.466667 0-42.666667 19.2-42.666667 42.666667s19.2 42.666667 42.666667 42.666667c23.466667 0 42.666667-19.2 42.666667-42.666667S535.466667 170.666667 512 170.666667zM639.701333 426.24c-47.104 0-85.333333 38.314667-85.333333 85.546667s38.229333 85.546667 85.333333 85.546667 84.992-38.314667 84.992-85.546667S686.805333 426.24 639.701333 426.24zM810.666667 733.653333c0-62.634667-114.090667-94.122667-170.922667-94.122667-56.874667 0-170.965333 31.488-170.965333 94.122667L468.778667 810.666667 810.666667 810.666667 810.666667 733.653333z" fill="#272636"></path></g></g></svg>