<?xml version="1.0" standalone="no"?><!DOCTYPE svg PUBLIC "-//W3C//DTD SVG 1.1//EN" "http://www.w3.org/Graphics/SVG/1.1/DTD/svg11.dtd"><svg width="200" height="200" viewBox="0 0 200 200" version="1.1" xmlns="http://www.w3.org/2000/svg" xmlns:xlink="http://www.w3.org/1999/xlink"><defs><style type="text/css"><![CDATA[
@font-face { font-family: ifont; src: url("//at.alicdn.com/t/font_1442373896_4754455.eot?#iefix") format("embedded-opentype"), url("//at.alicdn.com/t/font_1442373896_4754455.woff") format("woff"), url("//at.alicdn.com/t/font_1442373896_4754455.ttf") format("truetype"), url("//at.alicdn.com/t/font_1442373896_4754455.svg#ifont") format("svg"); }

]]></style></defs><g class="transform-group"><g transform="scale(0.1953125, 0.1953125)"><path d="M645.019061 82.703607l298.53321 0 0 298.534234L645.019061 381.237841 645.019061 82.703607zM711.358979 314.8969l165.852352 0L877.211331 149.045571 711.358979 149.045571 711.358979 314.8969zM744.530472 182.213995l99.511411 0 0 99.512435L744.530472 281.726429 744.530472 182.213995zM512.342296 149.045571l-66.340941 0L446.001355 82.709747l-66.340941 0 0 298.528094L81.133344 381.237841l0 66.339918 66.335824 0 0 66.341964L81.133344 513.919722l0 131.49587C68.268338 603.553159 61.329299 559.096644 61.329299 513.016143c0-46.073338 6.936993-90.52269 19.798928-132.378983L81.128227 82.703607l297.93253 0c41.856293-12.860912 86.306668-19.798928 132.380006-19.798928 46.079478 0 90.539063 6.940063 132.399449 19.805068L512.342296 82.709747 512.342296 149.045571zM313.32152 149.045571 147.469168 149.045571l0 165.852352 165.852352 0L313.32152 149.045571zM280.150026 281.726429 180.637592 281.726429l0-99.513458 99.512435 0L280.150026 281.726429zM213.808062 447.577758 512.342296 447.577758l0-99.512435 66.340941 0 0 99.512435 165.847236 0 0 66.341964-66.339918 0 0 66.337871L578.683237 580.257593l0-66.337871-66.340941 0 0 66.337871L346.490967 580.257593l0-66.337871-66.340941 0 0 66.337871L147.469168 580.257593l0-66.337871 66.338894 0L213.808062 447.577758zM446.001355 215.385489l66.340941 0 0-66.340941 66.340941 0 0 132.681882-66.340941 0 0 66.338894-66.340941 0L446.001355 215.385489zM810.871413 447.577758l66.339918 0 0 66.341964 66.334801 0L943.546132 386.66955c11.703553 40.086997 18.005073 82.479503 18.005073 126.347616s-6.30152 86.259596-18.005073 126.34864l0-59.107189L744.530472 580.258617l0-66.337871 66.340941 0L810.871413 447.577758zM379.661438 945.128675 81.127204 945.128675 81.127204 646.595464l298.53321 0L379.660414 945.128675zM313.32152 712.937428 147.469168 712.937428l0 165.851329 165.852352 0L313.32152 712.937428zM280.150026 845.617263 180.637592 845.617263l0-99.508341 99.512435 0L280.150026 845.617263zM512.342296 878.789781l66.340941 0 0 66.333778 59.104119 0c-40.08802 11.703553-82.479503 18.005073-126.347616 18.005073-43.869137 0-86.259596-6.30152-126.34557-18.005073l127.248126 0L512.342296 878.789781zM446.001355 746.107899l66.340941 0 0-66.340941 132.676765 0 0-66.336848 232.19227 0 0 66.336848 66.340941 0 0 66.340941 0 66.338894-66.340941 0 0 66.341964-33.169447 0 0 66.338894-66.340941 0 0-66.338894 33.17047 0 0-66.341964-33.17047 0 0 66.341964-66.341964 0 0 66.338894-66.339918 0L645.019061 812.447816l66.339918 0 0-66.338894 66.341964 0 0-66.340941-66.341964 0 0 66.340941-66.339918 0 0 66.338894L512.342296 812.447816l0 66.341964-66.340941 0L446.001355 746.107899zM446.001355 613.43011l66.340941 0 0 66.336848-66.340941 0L446.001355 613.43011zM943.552272 945.128675l-66.340941 0 0-66.338894 66.340941 0L943.552272 945.128675z" fill="#272636"></path></g></g></svg>