<?xml version="1.0" standalone="no"?><!DOCTYPE svg PUBLIC "-//W3C//DTD SVG 1.1//EN" "http://www.w3.org/Graphics/SVG/1.1/DTD/svg11.dtd"><svg width="200" height="200" viewBox="0 0 200 200" version="1.1" xmlns="http://www.w3.org/2000/svg" xmlns:xlink="http://www.w3.org/1999/xlink"><defs><style type="text/css"><![CDATA[
@font-face { font-family: ifont; src: url("//at.alicdn.com/t/font_1442373896_4754455.eot?#iefix") format("embedded-opentype"), url("//at.alicdn.com/t/font_1442373896_4754455.woff") format("woff"), url("//at.alicdn.com/t/font_1442373896_4754455.ttf") format("truetype"), url("//at.alicdn.com/t/font_1442373896_4754455.svg#ifont") format("svg"); }

]]></style></defs><g class="transform-group"><g transform="scale(0.1953125, 0.1953125)"><path d="M587.896471 939.670588c85.534118-14.456471 143.36-56.621176 201.185882-118.061176 10.842353 3.614118 21.684706 4.818824 32.527059 4.818824 61.44 0 110.832941-49.392941 110.832941-110.832941 0-34.936471-16.865882-67.463529-43.369412-86.738824 3.614118-21.684706 6.023529-44.574118 6.023529-67.463529 0-57.825882-13.251765-112.037647-36.141176-161.430588-7.228235-14.456471-22.889412-18.070588-36.141176-8.432941l-36.141176 25.298824c-6.023529 4.818824-8.432941 13.251765-4.818824 20.48 18.070588 37.345882 27.708235 79.510588 27.708235 124.084706 0 15.661176-1.204706 31.322353-3.614118 45.778824-54.211765 7.228235-95.171765 53.007059-95.171765 109.628235 0 18.070588 4.818824 34.936471 12.047059 50.597647-45.778824 45.778824-84.329412 77.101176-149.383529 87.943529-7.228235 1.204706-14.456471 8.432941-14.456471 15.661176L558.983529 915.576471C558.983529 931.237647 572.235294 942.08 587.896471 939.670588L587.896471 939.670588zM597.534118 277.082353c55.416471 16.865882 103.604706 49.392941 139.745882 91.557647 4.818824 6.023529 14.456471 7.228235 20.48 2.409412l36.141176-24.094118c13.251765-8.432941 15.661176-26.503529 6.023529-38.550588-48.188235-54.211765-112.037647-95.171765-183.115294-115.651765-9.637647-48.188235-53.007059-84.329412-104.809412-84.329412-50.597647 0-92.762353 34.936471-103.604706 81.92C332.498824 210.823529 266.24 252.988235 216.847059 309.609412c-10.842353 12.047059-7.228235 28.912941 6.023529 38.550588l36.141176 24.094118c6.023529 4.818824 15.661176 2.409412 20.48-2.409412 37.345882-44.574118 87.943529-78.305882 145.769412-93.967059 19.275294 27.708235 50.597647 44.574118 86.738824 44.574118C546.936471 320.451765 578.258824 303.585882 597.534118 277.082353L597.534118 277.082353zM207.209412 561.392941c0-43.369412 10.842353-84.329412 27.708235-121.675294 3.614118-7.228235 1.204706-16.865882-6.023529-20.48l-36.141176-25.298824c-13.251765-8.432941-30.117647-4.818824-36.141176 9.637647-22.889412 48.188235-36.141176 102.4-36.141176 159.021176 0 27.708235 2.409412 55.416471 8.432941 80.715294-18.070588 19.275294-30.117647 45.778824-30.117647 74.691765 0 61.44 49.392941 110.832941 110.832941 110.832941 6.023529 0 12.047059 0 16.865882-1.204706 57.825882 60.235294 157.816471 102.4 245.76 114.447059 15.661176 2.409412 28.912941-9.637647 28.912941-25.298824l0-43.369412c0-7.228235-6.023529-14.456471-14.456471-15.661176-62.644706-8.432941-140.950588-36.141176-185.524706-77.101176 12.047059-18.070588 19.275294-38.550588 19.275294-61.44 0-61.44-49.392941-110.832941-110.832941-110.832941l0 0C208.414118 592.715294 207.209412 577.054118 207.209412 561.392941L207.209412 561.392941zM207.209412 561.392941" fill="#272636"></path></g></g></svg>