<?xml version="1.0" standalone="no"?><!DOCTYPE svg PUBLIC "-//W3C//DTD SVG 1.1//EN" "http://www.w3.org/Graphics/SVG/1.1/DTD/svg11.dtd"><svg width="200" height="200" viewBox="0 0 200 200" version="1.1" xmlns="http://www.w3.org/2000/svg" xmlns:xlink="http://www.w3.org/1999/xlink"><defs><style type="text/css"><![CDATA[
@font-face { font-family: ifont; src: url("//at.alicdn.com/t/font_1442373896_4754455.eot?#iefix") format("embedded-opentype"), url("//at.alicdn.com/t/font_1442373896_4754455.woff") format("woff"), url("//at.alicdn.com/t/font_1442373896_4754455.ttf") format("truetype"), url("//at.alicdn.com/t/font_1442373896_4754455.svg#ifont") format("svg"); }

]]></style></defs><g class="transform-group"><g transform="scale(0.1953125, 0.1953125)"><path d="M597.333333 85.333333 256 85.333333C209.066667 85.333333 171.093333 123.733333 171.093333 170.666667L170.666667 853.333333c0 46.933333 37.973333 85.333333 84.906667 85.333333L768 938.666667c46.933333 0 85.333333-38.4 85.333333-85.333333L853.333333 341.333333 597.333333 85.333333zM682.666667 768 341.333333 768l0-85.333333 341.333333 0L682.666667 768zM682.666667 597.333333 341.333333 597.333333l0-85.333333 341.333333 0L682.666667 597.333333zM554.666667 384 554.666667 149.333333 789.333333 384 554.666667 384z" fill="#272636"></path></g></g></svg>