<?xml version="1.0" standalone="no"?><!DOCTYPE svg PUBLIC "-//W3C//DTD SVG 1.1//EN" "http://www.w3.org/Graphics/SVG/1.1/DTD/svg11.dtd"><svg width="200" height="200" viewBox="0 0 200 200" version="1.1" xmlns="http://www.w3.org/2000/svg" xmlns:xlink="http://www.w3.org/1999/xlink"><defs><style type="text/css"><![CDATA[
@font-face { font-family: ifont; src: url("//at.alicdn.com/t/font_1442373896_4754455.eot?#iefix") format("embedded-opentype"), url("//at.alicdn.com/t/font_1442373896_4754455.woff") format("woff"), url("//at.alicdn.com/t/font_1442373896_4754455.ttf") format("truetype"), url("//at.alicdn.com/t/font_1442373896_4754455.svg#ifont") format("svg"); }

]]></style></defs><g class="transform-group"><g transform="scale(0.1953125, 0.1953125)"><path d="M511.573333 85.333333C276.053333 85.333333 85.333333 276.48 85.333333 512c0 235.52 190.72 426.666667 426.24 426.666667C747.52 938.666667 938.666667 747.52 938.666667 512 938.666667 276.48 747.52 85.333333 511.573333 85.333333zM512 853.333333c-188.586667 0-341.333333-152.746667-341.333333-341.333333 0-188.586667 152.746667-341.333333 341.333333-341.333333s341.333333 152.746667 341.333333 341.333333C853.333333 700.586667 700.586667 853.333333 512 853.333333zM533.333333 298.666667 469.333333 298.666667l0 256 224 134.4L725.333333 636.586667l-192-113.92L533.333333 298.666667z" fill="#272636"></path></g></g></svg>