<?xml version="1.0" standalone="no"?><!DOCTYPE svg PUBLIC "-//W3C//DTD SVG 1.1//EN" "http://www.w3.org/Graphics/SVG/1.1/DTD/svg11.dtd"><svg width="320.1171875" height="200" viewBox="0 0 320.1171875 200" version="1.1" xmlns="http://www.w3.org/2000/svg" xmlns:xlink="http://www.w3.org/1999/xlink"><defs><style type="text/css"><![CDATA[
@font-face { font-family: ifont; src: url("//at.alicdn.com/t/font_1442373896_4754455.eot?#iefix") format("embedded-opentype"), url("//at.alicdn.com/t/font_1442373896_4754455.woff") format("woff"), url("//at.alicdn.com/t/font_1442373896_4754455.ttf") format("truetype"), url("//at.alicdn.com/t/font_1442373896_4754455.svg#ifont") format("svg"); }

]]></style></defs><g class="transform-group"><g transform="scale(0.1953125, 0.1953125)"><path d="M1002.78912 399.03488 827.29216 399.03488c-1.85728 0-3.424 6.51776-3.424 14.56128 0 8.04352 1.56672 14.56128 3.424 14.56128l175.49696 0c1.89696 0 3.36128-6.51776 3.36128-14.56128S1004.68608 399.03488 1002.78912 399.03488zM595.17824 505.04704c-12.4992 10.43584-28.608 16.70656-46.1184 16.70656-17.57312 0-33.63968-6.27072-46.13888-16.70656-51.68512 29.04064-88.60416 105.55904-88.60416 195.2768 0 114.75968 60.34816 4.57984 134.74304 4.57984 74.35392 0 134.6816 110.17984 134.6816-4.57984C683.74144 610.60608 646.86464 534.08768 595.17824 505.04704zM502.1376 516.63872c0 0 14.02496 17.44896 38.38336 17.696-18.08768 15.26272-18.87104 51.6864-18.87104 51.68768L502.1376 516.63872zM549.2672 689.35168l-19.47136-15.05664 10.04544-85.01504-0.22784-1.85728c-3.58784-4.70144-5.87776-11.75552-5.87776-19.75808 0-14.02496 7.13472-25.41056 15.92192-25.41056 8.78592 0 15.88096 11.3856 15.88096 25.41056 0 8.99328-2.94912 16.82944-7.32032 21.36704l11.26144 85.26336L549.2672 689.35168zM576.44928 586.0224c0 0-0.78336-36.42496-18.91328-51.68768 24.35968-0.24704 38.38464-17.696 38.38464-17.696L576.44928 586.0224zM549.05984 501.49888c33.84576 0 61.3184-27.47264 61.3184-61.29664 0-33.9072-27.47264-61.33888-61.3184-61.33888-33.88672 0-61.33888 27.43168-61.33888 61.33888C487.72096 474.02624 515.17312 501.49888 549.05984 501.49888zM779.40224 918.68928 926.4256 865.85728 843.34336 774.12992ZM861.05728 750.92736 949.90336 854.39744 1225.17504 605.11488 1139.6544 506.11968ZM1306.55488 497.29664c0 0-22.5344-28.03072-49.05472-49.87648-26.54976-21.83296-49.04064-2.83264-49.04064-2.83264l-49.57952 44.1792 89.72544 100.34816c-0.00128-0.00128 42.47296-38.15936 55.60832-51.29856C1317.36448 524.65024 1306.55488 497.29664 1306.55488 497.29664zM540.52096 534.33472c-24.3584-0.24704-38.38336-17.696-38.38336-17.696l19.51232 69.38368C521.64992 586.02112 522.43328 549.59744 540.52096 534.33472zM1158.36416 412.5696l0-34.32448c-0.00128-38.69184-31.2896-70.00064-69.98144-70.00064L431.02336 308.24448c-38.65216 0-70.06336 31.3088-70.06336 70.00064l0 385.10976c0 38.65088 31.4112 70.00064 70.06336 70.00064l266.39872 0 20.01792-64.93568L1094.58304 421.12 1158.36416 412.5696zM549.05984 378.86336c33.84576 0 61.3184 27.43168 61.3184 61.33888 0 33.824-27.47264 61.29664-61.3184 61.29664-33.88672 0-61.33888-27.47264-61.33888-61.29664C487.72096 406.29504 515.17312 378.86336 549.05984 378.86336zM549.05984 704.90368c-74.39488 0-134.74304 110.17984-134.74304-4.57984 0-89.71776 36.91904-166.23616 88.60416-195.2768 12.4992 10.43584 28.56576 16.70656 46.13888 16.70656 17.5104 0 33.6192-6.27072 46.1184-16.70656 51.6864 29.04064 88.5632 105.55904 88.5632 195.2768C683.74144 815.08352 623.41376 704.90368 549.05984 704.90368zM1002.78912 428.15744 827.29216 428.15744c-1.85728 0-3.424-6.51776-3.424-14.56128 0-8.04352 1.56672-14.56128 3.424-14.56128l175.49696 0c1.89696 0 3.36128 6.51776 3.36128 14.56128S1004.68608 428.15744 1002.78912 428.15744zM565.53856 567.66464c0-14.02496-7.09504-25.41056-15.88096-25.41056-8.7872 0-15.92192 11.3856-15.92192 25.41056 0 8.00256 2.28992 15.05664 5.87776 19.75808l0.22784 1.85728-10.04544 85.01504 19.47136 15.05664 20.21248-15.05664-11.26144-85.26336C562.58944 584.49408 565.53856 576.65792 565.53856 567.66464zM557.536 534.33472c18.12992 15.26272 18.91328 51.68768 18.91328 51.68768l19.47136-69.38368C595.92064 516.63872 581.89568 534.08768 557.536 534.33472zM1146.2784 250.32832c38.69184 0 70.0224 31.34976 70.0224 70.00192l0 84.47232 58.34752-7.82208L1274.64832 262.00192c0-38.65216-31.392-70.00192-70.0224-70.00192L547.26528 192c-35.0208 0-63.89632 25.69984-69.0944 59.23584 3.5072-0.53504 7.1168-0.90752 10.78784-0.90752L1146.2784 250.32832z" fill="#272636"></path></g></g></svg>