<?xml version="1.0" standalone="no"?><!DOCTYPE svg PUBLIC "-//W3C//DTD SVG 1.1//EN" "http://www.w3.org/Graphics/SVG/1.1/DTD/svg11.dtd"><svg width="200" height="200" viewBox="0 0 200 200" version="1.1" xmlns="http://www.w3.org/2000/svg" xmlns:xlink="http://www.w3.org/1999/xlink"><defs><style type="text/css"><![CDATA[
@font-face { font-family: ifont; src: url("//at.alicdn.com/t/font_1442373896_4754455.eot?#iefix") format("embedded-opentype"), url("//at.alicdn.com/t/font_1442373896_4754455.woff") format("woff"), url("//at.alicdn.com/t/font_1442373896_4754455.ttf") format("truetype"), url("//at.alicdn.com/t/font_1442373896_4754455.svg#ifont") format("svg"); }

]]></style></defs><g class="transform-group"><g transform="scale(0.1953125, 0.1953125)"><path d="M1023.148574 713.692628 1023.148574 600.851631l-86.168982-14.347776c-3.503944-10.642384-7.777446-20.935822-12.731474-30.825053l50.771371-71.045079-79.781243-79.777975-70.958959 50.677193c-9.925453-5.028527-20.290947-9.320273-31.008472-12.842493l-14.348364-86.016049L666.073759 356.674399l-14.3105 85.97921c-10.717525 3.52222-21.046178 7.851828-30.972654 12.842493l-70.956912-50.677193-79.763846 79.760578 50.751927 71.062476c-4.953005 9.888208-9.2306 20.181645-12.731474 30.824029l-86.205823 14.423501 0 112.840998 86.387979 14.384615c3.505991 10.568706 7.742652 20.75265 12.716124 30.549783l-50.917709 71.338768 79.763846 79.758532 71.450166-51.02614c9.725901 4.89959 19.909238 9.139148 30.404696 12.58769l14.423069 86.585007 112.847668 0 14.438419-86.585007c10.477038-3.448542 20.624558-7.65126 30.388323-12.58769l71.450166 51.04456 79.781243-79.776951-50.9392-71.319325c4.976542-9.816576 9.214227-20.00052 12.718171-30.549783L1023.148574 713.692628zM722.516525 747.095389c-49.613964 0-89.804938-40.189328-89.804938-89.803305 0-49.617048 40.189951-89.804329 89.804938-89.804329 49.616011 0 89.806985 40.186258 89.806985 89.804329C812.32351 706.906062 772.132536 747.095389 722.516525 747.095389zM69.223361 252.721839l828.622376 0 0 55.349609 69.224384 71.26816L967.07012 127.898949c0-34.805714-28.216778-63.021336-63.023918-63.021336L63.023918 64.877613c-34.808163 0-63.024941 28.216645-63.024941 63.021336L-0.001023 896.102075c0 34.805714 28.216778 63.021336 63.024941 63.021336l397.76723 0-75.727761-74.964342L69.223361 884.159068 69.223361 252.721839zM154.168419 384.085702l287.560824 0 0 64.298422-287.560824 0 0-64.298422ZM154.168419 510.97567l196.245424 0 0 64.298422-196.245424 0 0-64.298422ZM154.168419 638.888945l196.245424 0 0 64.298422-196.245424 0 0-64.298422Z" fill="#272636"></path></g></g></svg>