<?xml version="1.0" standalone="no"?><!DOCTYPE svg PUBLIC "-//W3C//DTD SVG 1.1//EN" "http://www.w3.org/Graphics/SVG/1.1/DTD/svg11.dtd"><svg width="200" height="200" viewBox="0 0 200 200" version="1.1" xmlns="http://www.w3.org/2000/svg" xmlns:xlink="http://www.w3.org/1999/xlink"><defs><style type="text/css"><![CDATA[
@font-face { font-family: ifont; src: url("//at.alicdn.com/t/font_1442373896_4754455.eot?#iefix") format("embedded-opentype"), url("//at.alicdn.com/t/font_1442373896_4754455.woff") format("woff"), url("//at.alicdn.com/t/font_1442373896_4754455.ttf") format("truetype"), url("//at.alicdn.com/t/font_1442373896_4754455.svg#ifont") format("svg"); }

]]></style></defs><g class="transform-group"><g transform="scale(0.1953125, 0.1953125)"><path d="M853.333333 85.333333 170.666667 85.333333C123.733333 85.333333 85.76 123.733333 85.76 170.666667L85.333333 938.666667l170.666667-170.666667 597.333333 0c46.933333 0 85.333333-38.4 85.333333-85.333333L938.666667 170.666667C938.666667 123.733333 900.266667 85.333333 853.333333 85.333333zM256 597.333333l0-105.386667 293.546667-293.546667c8.533333-8.533333 21.76-8.533333 30.293333 0l75.52 75.52c8.533333 8.533333 8.533333 21.76 0 30.293333L361.386667 597.333333 256 597.333333zM768 597.333333l-320 0 85.333333-85.333333L768 512 768 597.333333z" fill="#272636"></path></g></g></svg>