<?xml version="1.0" standalone="no"?><!DOCTYPE svg PUBLIC "-//W3C//DTD SVG 1.1//EN" "http://www.w3.org/Graphics/SVG/1.1/DTD/svg11.dtd"><svg width="200" height="200" viewBox="0 0 200 200" version="1.1" xmlns="http://www.w3.org/2000/svg" xmlns:xlink="http://www.w3.org/1999/xlink"><defs><style type="text/css"><![CDATA[
@font-face { font-family: ifont; src: url("//at.alicdn.com/t/font_1442373896_4754455.eot?#iefix") format("embedded-opentype"), url("//at.alicdn.com/t/font_1442373896_4754455.woff") format("woff"), url("//at.alicdn.com/t/font_1442373896_4754455.ttf") format("truetype"), url("//at.alicdn.com/t/font_1442373896_4754455.svg#ifont") format("svg"); }

]]></style></defs><g class="transform-group"><g transform="scale(0.1953125, 0.1953125)"><path d="M512 746.666667c46.933333 0 85.333333-38.4 85.333333-85.333333s-38.4-85.333333-85.333333-85.333333c-46.933333 0-85.333333 38.4-85.333333 85.333333S465.066667 746.666667 512 746.666667zM768 362.666667l-42.666667 0 0-85.333333c0-117.76-95.573333-213.333333-213.333333-213.333333-117.76 0-213.333333 95.573333-213.333333 213.333333l0 85.333333L256 362.666667c-46.933333 0-85.333333 38.4-85.333333 85.333333l0 426.666667c0 46.933333 38.4 85.333333 85.333333 85.333333l512 0c46.933333 0 85.333333-38.4 85.333333-85.333333l0-426.666667C853.333333 401.066667 814.933333 362.666667 768 362.666667zM379.733333 277.333333c0-72.96 59.306667-132.266667 132.266667-132.266667 72.96 0 132.266667 59.306667 132.266667 132.266667l0 85.333333L379.733333 362.666667 379.733333 277.333333zM768 874.666667 256 874.666667l0-426.666667 512 0L768 874.666667z" fill="#272636"></path></g></g></svg>