<?xml version="1.0" standalone="no"?><!DOCTYPE svg PUBLIC "-//W3C//DTD SVG 1.1//EN" "http://www.w3.org/Graphics/SVG/1.1/DTD/svg11.dtd"><svg width="200" height="200" viewBox="0 0 200 200" version="1.1" xmlns="http://www.w3.org/2000/svg" xmlns:xlink="http://www.w3.org/1999/xlink"><defs><style type="text/css"><![CDATA[
@font-face { font-family: ifont; src: url("//at.alicdn.com/t/font_1442373896_4754455.eot?#iefix") format("embedded-opentype"), url("//at.alicdn.com/t/font_1442373896_4754455.woff") format("woff"), url("//at.alicdn.com/t/font_1442373896_4754455.ttf") format("truetype"), url("//at.alicdn.com/t/font_1442373896_4754455.svg#ifont") format("svg"); }

]]></style></defs><g class="transform-group"><g transform="scale(0.1953125, 0.1953125)"><path d="M1011.844657 913.663032 746.609831 661.690254c54.354955-69.51319 86.754876-157.026336 86.754876-252.108878 0-226.187509-183.389774-409.581376-409.581376-409.581376-226.255047 0-409.581376 183.39489-409.581376 409.581376 0 226.224348 183.327352 409.616168 409.581376 409.616168 78.112032 0 151.11572-21.874193 213.229382-59.826574l264.615727 264.61675L1011.844657 913.663032zM150.729421 409.581376c0-150.793378 122.199133-273.021164 273.053909-273.021164 150.792355 0 273.053909 122.227786 273.053909 273.021164 0 150.826124-122.262578 273.087679-273.053909 273.087679C272.927531 682.669054 150.729421 560.4075 150.729421 409.581376z" fill="#272636"></path></g></g></svg>