<?xml version="1.0" standalone="no"?><!DOCTYPE svg PUBLIC "-//W3C//DTD SVG 1.1//EN" "http://www.w3.org/Graphics/SVG/1.1/DTD/svg11.dtd"><svg width="201.171875" height="200" viewBox="0 0 201.171875 200" version="1.1" xmlns="http://www.w3.org/2000/svg" xmlns:xlink="http://www.w3.org/1999/xlink"><defs><style type="text/css"><![CDATA[
@font-face { font-family: ifont; src: url("//at.alicdn.com/t/font_1442373896_4754455.eot?#iefix") format("embedded-opentype"), url("//at.alicdn.com/t/font_1442373896_4754455.woff") format("woff"), url("//at.alicdn.com/t/font_1442373896_4754455.ttf") format("truetype"), url("//at.alicdn.com/t/font_1442373896_4754455.svg#ifont") format("svg"); }

]]></style></defs><g class="transform-group"><g transform="scale(0.1953125, 0.1953125)"><path d="M95.573333 725.333333c51.2 0 93.866667-42.666667 93.866667-97.28 0-8.533333-1.706667-17.066667-3.413333-23.893333l211.626667-220.16c6.826667 1.706667 15.36 3.413333 23.893333 3.413333 8.533333 0 17.066667-1.706667 23.893333-3.413333l119.466667 122.88c-1.706667 8.533333-3.413333 17.066667-3.413333 25.6 0 52.906667 42.666667 97.28 93.866667 97.28 51.2 0 93.866667-44.373333 93.866667-97.28 0-8.533333-1.706667-17.066667-3.413333-25.6l165.546667-172.373333c6.826667 1.706667 15.36 3.413333 23.893333 3.413333 51.2 0 93.866667-44.373333 93.866667-97.28 0-52.906667-42.666667-97.28-93.866667-97.28-51.2 0-93.866667 42.666667-93.866667 97.28 0 8.533333 1.706667 17.066667 3.413333 23.893333l-165.546667 172.373333c-6.826667-1.706667-15.36-3.413333-23.893333-3.413333-8.533333 0-17.066667 1.706667-23.893333 3.413333l-119.466667-122.88c1.706667-8.533333 3.413333-17.066667 3.413333-25.6 0-52.906667-42.666667-97.28-93.866667-97.28-51.2 0-93.866667 42.666667-93.866667 97.28 0 8.533333 1.706667 17.066667 3.413333 25.6L117.76 535.893333c-6.826667-1.706667-15.36-3.413333-23.893333-3.413333-51.2 0-93.866667 42.666667-93.866667 97.28C1.706667 680.96 44.373333 725.333333 95.573333 725.333333zM1.706667 878.933333l1024 0 0-85.333333L1.706667 793.6 1.706667 878.933333z" fill="#272636"></path></g></g></svg>