<?xml version="1.0" standalone="no"?><!DOCTYPE svg PUBLIC "-//W3C//DTD SVG 1.1//EN" "http://www.w3.org/Graphics/SVG/1.1/DTD/svg11.dtd"><svg width="200" height="200" viewBox="0 0 200 200" version="1.1" xmlns="http://www.w3.org/2000/svg" xmlns:xlink="http://www.w3.org/1999/xlink"><defs><style type="text/css"><![CDATA[
@font-face { font-family: ifont; src: url("//at.alicdn.com/t/font_1442373896_4754455.eot?#iefix") format("embedded-opentype"), url("//at.alicdn.com/t/font_1442373896_4754455.woff") format("woff"), url("//at.alicdn.com/t/font_1442373896_4754455.ttf") format("truetype"), url("//at.alicdn.com/t/font_1442373896_4754455.svg#ifont") format("svg"); }

]]></style></defs><g class="transform-group"><g transform="scale(0.1953125, 0.1953125)"><path d="M693.529166 231.749178c33.938317 4.776793 69.254061-1.37123 96.966328 3.343141 44.878932 7.634888 67.626938 45.798069 62.696446 101.978603-18.112239 0-36.22243 0-54.337739 0-1.530929 99.660814-0.833005 198.421118-0.833005 298.413484 0 50.469462 4.202891 103.547331-0.835052 148.787698-4.766756 42.771129-36.096558 68.819388-74.398432 75.231425-37.767686 6.321986-87.886161 1.672082-129.56713 1.672082-87.402117 0-175.966757 1.692548-261.644532 0-41.724973-0.825808-72.465328-14.06739-91.115847-39.288818-18.652566-25.219381-16.718438-63.384609-16.718438-108.663862 0-126.147048 0-251.233951 0-376.152009-17.277186 0-34.55335 0-51.828489 0-8.416015-51.690266 13.962562-88.836281 51.828489-101.142561 27.834046-9.048073 64.941672-1.739621 104.488961-4.179183-3.192846-55.638181-0.186249-97.902774 47.649136-103.650685 21.378766-2.569522 49.928132 0 76.067513 0 47.131321 0 101.748434 0 152.140143 0 29.007826 0 58.693108-2.799766 73.561333 10.030447C698.239637 155.901723 692.848639 196.84011 693.529166 231.749178zM380.056144 183.266977c0 16.717753 0 33.435507 0 50.15326 87.214844 0 174.429688 0 261.643509 0 0-17.553795 0-35.107589 0-52.66036-86.934447 0-173.872987 0-260.808457 0C379.916969 180.90007 379.983487 182.080965 380.056144 183.266977zM329.064754 342.922187c0 105.787348 0 211.132628 0 318.474378 0 27.204595-6.254704 85.166705 10.030858 96.963379 6.478817 4.693906 23.183952 5.386684 30.929674 0 16.849427-11.710716 10.866934-68.023256 10.866934-96.127338 0-108.72219 0-218.881103 0-321.818543-16.995766 0-33.994601 0-50.99139 0C328.926602 340.554256 328.992096 341.735152 329.064754 342.922187zM484.546128 342.922187c0 95.232968 0 206.437699 0 308.443931 0 24.335245-5.653998 81.938174 4.179354 98.635461 6.497237 11.031241 28.363117 16.032138 39.288381 7.52437 14.815011-11.536754 8.360754-72.541153 8.360754-97.79942 0-108.99746 0-213.551724 0-319.31042-16.996789 0-33.996648 0-50.992414 0C484.407976 340.554256 484.474494 341.735152 484.546128 342.922187zM641.699653 342.922187c0 102.497419 0 216.58992 0 322.654584 0 33.044604-6.441976 83.72896 15.046288 92.783173 9.356472 3.943822 25.961319 0.893346 30.092575-2.506077 14.029079-11.549034 7.525702-73.467245 7.525702-97.79942 0-108.447944 0-212.4486 0-317.638337-17.277186 0-34.554373 0-51.828489 0C641.561501 340.554256 641.628019 341.735152 641.699653 342.922187z" fill="#272636"></path></g></g></svg>