<?xml version="1.0" standalone="no"?><!DOCTYPE svg PUBLIC "-//W3C//DTD SVG 1.1//EN" "http://www.w3.org/Graphics/SVG/1.1/DTD/svg11.dtd"><svg width="211.1328125" height="200" viewBox="0 0 211.1328125 200" version="1.1" xmlns="http://www.w3.org/2000/svg" xmlns:xlink="http://www.w3.org/1999/xlink"><defs><style type="text/css"><![CDATA[
@font-face { font-family: ifont; src: url("//at.alicdn.com/t/font_1442373896_4754455.eot?#iefix") format("embedded-opentype"), url("//at.alicdn.com/t/font_1442373896_4754455.woff") format("woff"), url("//at.alicdn.com/t/font_1442373896_4754455.ttf") format("truetype"), url("//at.alicdn.com/t/font_1442373896_4754455.svg#ifont") format("svg"); }

]]></style></defs><g class="transform-group"><g transform="scale(0.1953125, 0.1953125)"><path d="M0 413.533184C0 599.895211 100.657778 758.37093 272.248889 809.3824 270.897778 815.503758 270.222222 820.94501 270.222222 827.066368L270.222222 972.619207C270.222222 1021.590244 304.675556 1024.991004 339.804444 990.303175L540.444444 816.183922 663.395556 816.183922C893.76 816.183922 1080.888889 631.182222 1080.888889 402.650738 1080.888889 174.119253 893.76 0 663.395556 0L417.493333 0C187.128889 0 0 185.0017 0 413.533184L0 413.533184ZM270.222222 272.061326 810.666667 272.061326 810.666667 340.076658 270.222222 340.076658 270.222222 272.061326 270.222222 272.061326ZM270.222222 408.091989 810.666667 408.091989 810.666667 476.107321 270.222222 476.107321 270.222222 408.091989 270.222222 408.091989ZM270.222222 544.122652 608 544.122652 608 612.137927 270.222222 612.137927 270.222222 544.122652 270.222222 544.122652Z" fill="#272636"></path></g></g></svg>