<?xml version="1.0" standalone="no"?><!DOCTYPE svg PUBLIC "-//W3C//DTD SVG 1.1//EN" "http://www.w3.org/Graphics/SVG/1.1/DTD/svg11.dtd"><svg width="200" height="200" viewBox="0 0 200 200" version="1.1" xmlns="http://www.w3.org/2000/svg" xmlns:xlink="http://www.w3.org/1999/xlink"><defs><style type="text/css"><![CDATA[
@font-face { font-family: ifont; src: url("//at.alicdn.com/t/font_1442373896_4754455.eot?#iefix") format("embedded-opentype"), url("//at.alicdn.com/t/font_1442373896_4754455.woff") format("woff"), url("//at.alicdn.com/t/font_1442373896_4754455.ttf") format("truetype"), url("//at.alicdn.com/t/font_1442373896_4754455.svg#ifont") format("svg"); }

]]></style></defs><g class="transform-group"><g transform="scale(0.1953125, 0.1953125)"><path d="M938.666667 615.765333c0-101.632-100.309333-184.32-223.658667-184.32-123.306667 0-223.573333 82.688-223.573333 184.32 0 101.589333 100.266667 184.277333 223.573333 184.277333 18.773333 0 36.906667-2.090667 54.314667-5.76l33.194667 13.44 60.074667 24.277333-13.397333-44.330667-6.357333-20.992C900.693333 733.312 938.666667 678.186667 938.666667 615.765333zM682.538667 387.626667c4.010667 0 7.893333 0.384 11.861333 0.512C660.181333 275.413333 539.264 192 394.837333 192 223.914667 192 85.333333 308.736 85.333333 452.864c0 88.704 52.650667 166.912 132.864 214.101333l-25.429333 84.864 117.589333-48.170667c26.922667 6.442667 55.168 10.069333 84.48 10.069333 26.026667 0 51.114667-2.944 75.221333-8.064-22.229333-31.488-35.2-68.224-35.2-107.605333C434.944 482.090667 545.962667 387.626667 682.538667 387.626667z" fill="#272636"></path></g></g></svg>