<?xml version="1.0" standalone="no"?><!DOCTYPE svg PUBLIC "-//W3C//DTD SVG 1.1//EN" "http://www.w3.org/Graphics/SVG/1.1/DTD/svg11.dtd"><svg width="320.1171875" height="200" viewBox="0 0 320.1171875 200" version="1.1" xmlns="http://www.w3.org/2000/svg" xmlns:xlink="http://www.w3.org/1999/xlink"><defs><style type="text/css"><![CDATA[
@font-face { font-family: ifont; src: url("//at.alicdn.com/t/font_1442373896_4754455.eot?#iefix") format("embedded-opentype"), url("//at.alicdn.com/t/font_1442373896_4754455.woff") format("woff"), url("//at.alicdn.com/t/font_1442373896_4754455.ttf") format("truetype"), url("//at.alicdn.com/t/font_1442373896_4754455.svg#ifont") format("svg"); }

]]></style></defs><g class="transform-group"><g transform="scale(0.1953125, 0.1953125)"><path d="M544.725 450.15l122.35-122.35c26.35-26.35 69.475-26.35 95.75 0l167.15 167.15c9.725 9.725 9.725 25.525 0 35.25l-182.875 182.85c-9.725 9.725-25.525 9.725-35.25 0l-167.125-167.2C518.4 519.6 518.4 476.5 544.725 450.15L544.725 450.15zM990.225 555.15l-200.5 200.525c-9.725 9.725-9.725 25.525 0 35.25l169.975 169.975c26.35 26.35 69.45 26.35 95.75 0l122.325-122.35c26.35-26.35 26.35-69.45 0-95.75L990.225 555.15 990.225 555.15zM587.55 524.9l119.05 119.05c9.725 9.725 25.525 9.725 35.25 0l119.05-119.05c9.725-9.725 9.725-25.525 0-35.25l-119.05-119.05c-9.725-9.725-25.525-9.725-35.25 0l-119.05 119.05C577.825 499.375 577.825 515.15 587.55 524.9zM843.52 85.76c-67.2 0-121.6 54.4-121.6 121.6s54.4 121.6 121.6 121.6 121.6-54.4 121.6-121.6S910.72 85.76 843.52 85.76zM904.32 251.008l-17.152 17.152L843.52 224.512l-43.648 43.648-17.152-17.152 43.648-43.648-43.648-43.648 17.152-17.152 43.648 43.648 43.648-43.648 17.152 17.152L860.672 207.36 904.32 251.008z" fill="#272636"></path></g></g></svg>