<?xml version="1.0" standalone="no"?><!DOCTYPE svg PUBLIC "-//W3C//DTD SVG 1.1//EN" "http://www.w3.org/Graphics/SVG/1.1/DTD/svg11.dtd"><svg width="200.1953125" height="200" viewBox="0 0 200.1953125 200" version="1.1" xmlns="http://www.w3.org/2000/svg" xmlns:xlink="http://www.w3.org/1999/xlink"><defs><style type="text/css"><![CDATA[
@font-face { font-family: ifont; src: url("//at.alicdn.com/t/font_1442373896_4754455.eot?#iefix") format("embedded-opentype"), url("//at.alicdn.com/t/font_1442373896_4754455.woff") format("woff"), url("//at.alicdn.com/t/font_1442373896_4754455.ttf") format("truetype"), url("//at.alicdn.com/t/font_1442373896_4754455.svg#ifont") format("svg"); }

]]></style></defs><g class="transform-group"><g transform="scale(0.1953125, 0.1953125)"><path d="M1024.41472 612.00384c0-1.17248-0.08192-2.33472-0.20992-3.47648L1024.2048 71.68c0-39.5264-32.1536-71.68-71.68-71.68L71.8848 0C32.3584 0 0.2048 32.1536 0.2048 71.68l0 536.86272c-0.128 1.13664-0.20992 2.28864-0.20992 3.46112s0.08192 2.32448 0.20992 3.46112l0 120.96c0 39.5264 32.1536 71.68 71.68 71.68l355.584 0L427.4688 921.6 360.84736 921.6c-41.55904 0-75.25376 33.69472-75.25376 75.25376L285.5936 1024l453.22752 0 0-27.14624c0-41.55904-33.6896-75.25376-75.25888-75.25376l-67.1232 0 0-113.49504L952.5248 808.10496c39.5264 0 71.68-32.1536 71.68-71.68l0-120.94464C1024.3328 614.33856 1024.41472 613.18144 1024.41472 612.00384zM71.8848 61.44l880.64 0c5.64736 0 10.24 4.59264 10.24 10.24l0 509.60384L61.6448 581.28384 61.6448 71.68C61.6448 66.03264 66.23232 61.44 71.8848 61.44zM952.5248 746.66496 71.8848 746.66496c-5.65248 0-10.24-4.59264-10.24-10.24l0-93.70112 901.12 0 0 93.70112C962.7648 742.07232 958.17216 746.66496 952.5248 746.66496zM512.2048 690.54464m-33.93024 0a6.627 6.627 0 1 0 67.86048 0 6.627 6.627 0 1 0-67.86048 0Z" fill="#272636"></path></g></g></svg>