<?xml version="1.0" standalone="no"?><!DOCTYPE svg PUBLIC "-//W3C//DTD SVG 1.1//EN" "http://www.w3.org/Graphics/SVG/1.1/DTD/svg11.dtd"><svg width="200" height="200" viewBox="0 0 200 200" version="1.1" xmlns="http://www.w3.org/2000/svg" xmlns:xlink="http://www.w3.org/1999/xlink"><defs><style type="text/css"><![CDATA[
@font-face { font-family: ifont; src: url("//at.alicdn.com/t/font_1442373896_4754455.eot?#iefix") format("embedded-opentype"), url("//at.alicdn.com/t/font_1442373896_4754455.woff") format("woff"), url("//at.alicdn.com/t/font_1442373896_4754455.ttf") format("truetype"), url("//at.alicdn.com/t/font_1442373896_4754455.svg#ifont") format("svg"); }

]]></style></defs><g class="transform-group"><g transform="scale(0.1953125, 0.1953125)"><path d="M938.666667 682.666667 938.666667 170.666667c0-46.933333-38.4-85.333333-85.333333-85.333333L341.333333 85.333333C294.4 85.333333 256 123.733333 256 170.666667l0 512c0 46.933333 38.4 85.333333 85.333333 85.333333l512 0C900.266667 768 938.666667 729.6 938.666667 682.666667zM469.333333 512l85.333333 115.2 128-157.866667 170.666667 213.333333L341.333333 682.666667 469.333333 512zM85.333333 256l0 597.333333c0 46.933333 38.4 85.333333 85.333333 85.333333l597.333333 0 0-85.333333L170.666667 853.333333 170.666667 256 85.333333 256z" fill="#272636"></path></g></g></svg>