<?xml version="1.0" standalone="no"?><!DOCTYPE svg PUBLIC "-//W3C//DTD SVG 1.1//EN" "http://www.w3.org/Graphics/SVG/1.1/DTD/svg11.dtd"><svg width="200" height="200" viewBox="0 0 200 200" version="1.1" xmlns="http://www.w3.org/2000/svg" xmlns:xlink="http://www.w3.org/1999/xlink"><defs><style type="text/css"><![CDATA[
@font-face { font-family: ifont; src: url("//at.alicdn.com/t/font_1442373896_4754455.eot?#iefix") format("embedded-opentype"), url("//at.alicdn.com/t/font_1442373896_4754455.woff") format("woff"), url("//at.alicdn.com/t/font_1442373896_4754455.ttf") format("truetype"), url("//at.alicdn.com/t/font_1442373896_4754455.svg#ifont") format("svg"); }

]]></style></defs><g class="transform-group"><g transform="scale(0.1953125, 0.1953125)"><path d="M480 64c-262.4 0-480 217.6-480 480 0 262.4 217.6 480 480 480 262.4 0 480-217.6 480-480C960 281.6 742.4 64 480 64L480 64zM684.8 678.4c19.2 19.2 19.2 44.8 0 64-19.2 19.2-44.8 19.2-64 0l-134.4-134.4-140.8 140.8c-19.2 19.2-51.2 19.2-70.4 0-19.2-19.2-19.2-51.2 0-70.4l140.8-140.8-134.4-134.4c-19.2-19.2-19.2-44.8 0-64 19.2-19.2 44.8-19.2 64 0l134.4 134.4 140.8-140.8c19.2-19.2 51.2-19.2 70.4 0 19.2 19.2 19.2 51.2 0 70.4l-140.8 140.8L684.8 678.4 684.8 678.4z" fill="#272636"></path></g></g></svg>