<?xml version="1.0" standalone="no"?><!DOCTYPE svg PUBLIC "-//W3C//DTD SVG 1.1//EN" "http://www.w3.org/Graphics/SVG/1.1/DTD/svg11.dtd"><svg width="320.1171875" height="200" viewBox="0 0 320.1171875 200" version="1.1" xmlns="http://www.w3.org/2000/svg" xmlns:xlink="http://www.w3.org/1999/xlink"><defs><style type="text/css"><![CDATA[
@font-face { font-family: ifont; src: url("//at.alicdn.com/t/font_1442373896_4754455.eot?#iefix") format("embedded-opentype"), url("//at.alicdn.com/t/font_1442373896_4754455.woff") format("woff"), url("//at.alicdn.com/t/font_1442373896_4754455.ttf") format("truetype"), url("//at.alicdn.com/t/font_1442373896_4754455.svg#ifont") format("svg"); }

]]></style></defs><g class="transform-group"><g transform="scale(0.1953125, 0.1953125)"><path d="M1131.52 604.8c-11.392-3.968-23.04-6.784-35.2-6.784-11.392 0-23.168 2.176-33.792 6.016-9.472-21.12-27.136-36.864-47.232-44.8-7.168-2.816-14.592-4.736-21.76-5.888 48.384-57.6 74.624-129.664 74.624-205.824 0-85.76-33.408-166.4-94.08-227.072-60.672-60.672-141.312-94.08-227.072-94.08-85.76 0-166.4 33.408-227.072 94.08C459.648 181.248 426.24 261.888 426.24 347.648c0 85.76 33.408 166.4 94.08 227.072 38.912 38.912 86.144 66.56 137.6 81.408l0-57.216C554.624 562.048 480.64 463.36 480.64 347.648c0-147.072 119.68-266.752 266.752-266.752s266.752 119.68 266.752 266.752c0 83.84-38.912 158.72-99.584 207.616-4.864-3.2-9.984-5.888-15.488-8.064-1.152-0.512-2.304-0.896-3.456-1.28 60.288-45.184 99.328-117.248 99.328-198.144 0-136.576-111.104-247.552-247.552-247.552-136.576 0-247.552 111.104-247.552 247.552 0 104.96 65.664 194.944 158.08 230.912l0-59.648c-61.568-32.384-103.808-96.896-103.808-171.264 0-106.496 86.656-193.28 193.28-193.28 106.496 0 193.28 86.656 193.28 193.28 0 74.24-42.112 138.88-103.808 171.264l0-93.44c0-41.6-23.424-68.48-54.272-79.872-11.392-4.608-23.424-6.4-35.584-6.4-11.648 0-23.808 1.792-35.072 6.4-30.08 11.392-53.888 38.272-53.888 79.872l0 269.952c-9.216-2.816-18.304-3.968-27.52-3.968-11.392 0-23.808 1.792-35.2 6.4-29.696 11.776-53.504 38.272-53.504 80.256L541.824 929.28c0 40.448 0.768 61.44 7.04 79.36l70.912 0c-14.72-21.376-16.128-33.536-16.128-79.36L603.648 778.112c0-12.544 6.656-20.736 15.36-24.704 2.944-0.768 7.296-1.408 11.392-1.408 4.736 0 8.832 0.64 12.8 1.408 8.064 3.968 14.208 11.392 14.592 23.296l0 0.64 0 0.768 0 132.096c0 16.512 13.952 29.696 31.488 29.696 16.896 0 30.464-13.312 30.464-29.696L719.744 425.472c0-12.16 6.528-20.48 14.976-24.448 3.328-1.024 8.064-1.792 12.032-1.792 4.736 0 8.832 0.64 12.8 1.792 8.064 3.968 14.72 12.16 14.72 24.448l0 292.864c0 16.768 13.568 30.464 30.72 30.464 17.28 0 31.488-13.568 31.488-30.464l0-91.008 0-0.64L836.48 625.92c0-11.776 6.272-19.712 14.336-22.528 3.968-1.024 8.064-1.792 12.8-1.792 3.968 0 8.832 0.768 12.032 1.792 8.064 2.816 14.976 10.752 14.976 23.936l0 91.008c0 16.768 13.568 30.464 30.72 30.464 17.152 0 31.488-13.568 31.488-30.464l0-79.104 0-1.408c0-11.776 6.656-18.944 14.72-22.528 3.712-1.408 7.68-2.176 12.416-2.176 3.968 0 8.704 0.64 12.032 2.176 8.064 3.584 14.72 11.52 14.72 24.064l0 79.104c0 16.768 14.336 30.464 31.104 30.464 17.536 0 30.72-13.568 30.72-30.464l0-33.664 0-0.768 0-0.384c0.384-12.16 7.296-19.328 15.36-22.528 3.328-1.408 8.064-2.176 12.16-2.176 4.736 0 8.832 0.64 12.032 2.176 8.704 3.2 14.976 11.136 14.976 23.68l0 307.584-4.224 16.384L1182.72 1008.768l1.536-6.016c0.768-1.792 0.768-4.224 0.768-6.4l0.384 0L1185.408 684.672C1185.408 643.84 1161.984 616.576 1131.52 604.8z" fill="#272636"></path></g></g></svg>