<?xml version="1.0" standalone="no"?><!DOCTYPE svg PUBLIC "-//W3C//DTD SVG 1.1//EN" "http://www.w3.org/Graphics/SVG/1.1/DTD/svg11.dtd"><svg width="320.1171875" height="200" viewBox="0 0 320.1171875 200" version="1.1" xmlns="http://www.w3.org/2000/svg" xmlns:xlink="http://www.w3.org/1999/xlink"><defs><style type="text/css"><![CDATA[
@font-face { font-family: ifont; src: url("//at.alicdn.com/t/font_1442373896_4754455.eot?#iefix") format("embedded-opentype"), url("//at.alicdn.com/t/font_1442373896_4754455.woff") format("woff"), url("//at.alicdn.com/t/font_1442373896_4754455.ttf") format("truetype"), url("//at.alicdn.com/t/font_1442373896_4754455.svg#ifont") format("svg"); }

]]></style></defs><g class="transform-group"><g transform="scale(0.1953125, 0.1953125)"><path d="M703.488 263.68m-213.248 0a166.6 166.6 0 1 0 426.496 0 166.6 166.6 0 1 0-426.496 0ZM786.56 559.872c0 0-332.288-63.744-431.872 263.04 0 0-16.64 35.968 0 91.392l348.8 0C703.488 914.304 598.272 767.488 786.56 559.872zM1254.528 500.352 1067.52 501.76 811.52 770.304c0 0-22.144 27.648 1.408 58.112l142.592 146.688c0 0 32.128 35.968 72.832 0l253.952-254.72 22.144-187.392C1304.32 533.12 1304.32 494.336 1254.528 500.352zM1086.464 638.976 923.52 790.656 952.576 819.712 1109.888 663.552ZM1137.28 689.792 974.336 841.472 1003.392 870.528 1160.704 714.24ZM1210.24 596.096 1210.24 596.096c-12.16 0-22.016-9.856-22.016-22.016l0 0c0-12.16 9.856-22.016 22.016-22.016l0 0c12.16 0 22.016 9.856 22.016 22.016l0 0C1232.256 586.24 1222.272 596.096 1210.24 596.096z" fill="#272636"></path></g></g></svg>