<?xml version="1.0" standalone="no"?><!DOCTYPE svg PUBLIC "-//W3C//DTD SVG 1.1//EN" "http://www.w3.org/Graphics/SVG/1.1/DTD/svg11.dtd"><svg width="320.1171875" height="200" viewBox="0 0 320.1171875 200" version="1.1" xmlns="http://www.w3.org/2000/svg" xmlns:xlink="http://www.w3.org/1999/xlink"><defs><style type="text/css"><![CDATA[
@font-face { font-family: ifont; src: url("//at.alicdn.com/t/font_1442373896_4754455.eot?#iefix") format("embedded-opentype"), url("//at.alicdn.com/t/font_1442373896_4754455.woff") format("woff"), url("//at.alicdn.com/t/font_1442373896_4754455.ttf") format("truetype"), url("//at.alicdn.com/t/font_1442373896_4754455.svg#ifont") format("svg"); }

]]></style></defs><g class="transform-group"><g transform="scale(0.1953125, 0.1953125)"><path d="M641.5 516.6c0-5.8 2.9-12.4 7.3-16.7L988 160.7c4.4-4.4 10.9-7.3 16.7-7.3 5.8 0 12.4 2.9 16.7 7.3l36.4 36.4c4.4 4.4 7.3 10.9 7.3 16.7s-2.9 12.4-7.3 16.7L771.8 516.6l286.1 286.1c4.4 4.4 7.3 10.9 7.3 16.7 0 6.6-2.9 12.4-7.3 16.7l-36.4 36.4c-4.4 4.4-10.9 7.3-16.7 7.3-5.8 0-12.4-2.9-16.7-7.3L648.8 533.4C644.4 529 641.5 522.5 641.5 516.6z" fill="#272636"></path></g></g></svg>