<?xml version="1.0" standalone="no"?><!DOCTYPE svg PUBLIC "-//W3C//DTD SVG 1.1//EN" "http://www.w3.org/Graphics/SVG/1.1/DTD/svg11.dtd"><svg width="312.5" height="200" viewBox="0 0 312.5 200" version="1.1" xmlns="http://www.w3.org/2000/svg" xmlns:xlink="http://www.w3.org/1999/xlink"><defs><style type="text/css"><![CDATA[
@font-face { font-family: ifont; src: url("//at.alicdn.com/t/font_1442373896_4754455.eot?#iefix") format("embedded-opentype"), url("//at.alicdn.com/t/font_1442373896_4754455.woff") format("woff"), url("//at.alicdn.com/t/font_1442373896_4754455.ttf") format("truetype"), url("//at.alicdn.com/t/font_1442373896_4754455.svg#ifont") format("svg"); }

]]></style></defs><g class="transform-group"><g transform="scale(0.1953125, 0.1953125)"><path d="M983.3038 139.924829l-69.963665 0C913.340135 63.602422 849.737713 0 773.415306 0s-139.924829 63.602422-139.924829 139.924829l-63.602422 0 0 69.963665 413.415745 0L983.3038 139.924829 983.3038 139.924829 983.3038 139.924829zM703.452891 139.924829c0-38.161203 31.801211-69.962415 69.962415-69.962415 38.161203 0 69.962415 31.801211 69.962415 69.962415L703.452891 139.924829 703.452891 139.924829zM1111.109894 253.80844l0 449.446951C1149.998596 706.249138 1167.498575 714.999127 1181.072308 735.056603l0-513.049374c0-44.522446-31.801211-82.683649-82.683649-82.683649l-57.24118 0 0 69.962415 31.801211 0C1092.028667 209.285995 1111.109894 228.367221 1111.109894 253.80844L1111.109894 253.80844zM922.572624 896.793905l-454.449445 0c-25.439969 0-38.161203-19.081227-38.161203-38.161203L429.961975 248.049697c0-25.441219 19.081227-38.161203 38.161203-38.161203l31.801211 0L499.92439 139.924829l-57.24118 0c-44.522446 0-82.683649 38.162453-82.683649 82.683649l0 674.185427c0 44.521196 31.801211 82.683649 82.683649 82.683649l518.050618 0C931.248863 956.248833 922.572624 928.595116 922.572624 896.793905L922.572624 896.793905zM1087.753672 724.081616c-80.334902 0-149.959817 64.267422-149.959817 149.958567 0 80.336152 64.268672 149.959817 149.959817 149.959817s149.958567-64.268672 149.958567-149.959817C1237.713489 788.349038 1173.444818 724.081616 1087.753672 724.081616L1087.753672 724.081616zM1109.176146 895.462657l0 85.691145-42.846198 0 0-85.691145-85.691145 0 0-42.844948 85.691145 0 0-85.691145 42.846198 0 0 85.691145 85.691145 0 0 42.844948L1109.176146 895.462657 1109.176146 895.462657zM804.611518 653.237953c-10.739987-4.229995-19.073727-9.053739-25.027469-14.407482-5.979993-5.391243-10.394987-11.056237-13.276234-16.976229-2.882496-5.986243-4.511244-11.932485-4.887494-17.886228-0.4075-5.953743 0-11.811236 1.156249-17.573729 1.534998-9.617488 4.603744-16.41373 9.211239-20.451225 4.601244-4.041245 10.584987-8.927489 17.851228-14.689982 3.069996-2.694997 5.858743-6.453742 8.36624-11.213736 2.502497-4.824994 4.694994-9.709988 6.604992-14.722482 1.943748-5.763743 3.886245-11.902485 5.796243-18.417478 3.821245-1.157499 7.452491-3.256246 10.932487-6.358742 3.069996-2.661247 5.854993-6.421242 8.36499-11.243736 2.501247-4.762494 4.102495-11.214986 4.883744-19.296226 0.784999-6.139993 0.689999-11.307486-0.28-15.536231-0.974999-4.227495-2.224997-7.704991-3.761245-10.398737-1.533748-3.068746-3.633746-5.546243-6.326242-7.457491 0-15.754981-0.941249-31.323712-2.882496-46.669943-1.942498-13.467484-5.171244-27.563716-9.774988-42.348698-4.633744-14.784982-11.932485-28.346215-21.924973-40.62495-4.194995-5.387493-10.056238-10.743737-17.572479-16.13248-7.484991-5.387493-16.03748-10.212488-25.618719-14.408732-9.617488-4.258745-19.894976-7.578741-30.852462-10.084988-10.931237-2.504997-21.957473-3.761245-33.10871-3.761245-8.836239 0-17.982478 0.689999-27.377467 2.006248-9.394989 1.378748-18.823727 3.946245-28.218716 7.79874-9.431238 3.853745-18.639977 9.113739-27.662466 15.851231-9.018739 6.702492-17.193729 15.439981-24.49122 26.216218-8.08124 11.148736-14.096233 23.803721-18.168728 38.024954-4.008745 14.222483-6.797492 27.438717-8.33249 39.749951-1.938748 14.594982-2.692497 29.192464-2.317497 43.788697-3.443746 3.852495-5.951243 7.86124-7.484991 12.121235-1.534998 3.822495-2.601247 8.42499-3.162496 13.814983-0.564999 5.357493 0.2825 11.307486 2.598747 17.852478 1.909998 6.547492 4.226245 11.527486 6.923742 15.004982 2.693747 3.444996 5.163744 6.137493 7.451241 8.04874 2.696247 1.911248 5.387493 3.257496 8.08249 4.041245 1.942498 6.514992 3.851245 12.654985 5.762493 18.418728 1.946248 5.011244 4.042495 9.897488 6.327492 14.721232 2.317497 4.759994 5.012494 8.51999 8.08124 11.214986 6.516242 5.387493 12.464985 10.648737 17.852478 15.848731 5.387493 5.167494 8.45874 12.183735 9.208739 21.017474 0.40875 6.169992 0.597499 11.714986 0.597499 16.69498 0 5.013744-0.972499 9.806238-2.882496 14.437482-1.908748 4.604994-4.978744 9.208739-9.242489 13.812483-4.194995 4.603744-10.334987 9.428738-18.417478 14.412482-10.366237 6.513742-22.294973 11.527486-35.707456 14.971232-13.464984 3.473746-26.436218 7.426241-38.902453 11.806236-12.497485 4.418745-23.428721 10.402487-32.82246 17.856228-9.429988 7.514991-15.098732 18.354978-17.043729 32.57746-3.822495 24.95997-4.697494 45.322445-2.567497 61.076175 2.099997 15.723731 5.073744 25.149969 8.927489 28.222466 2.287497 1.942498 7.86124 3.852495 16.69498 5.763743 8.832489 1.938748 19.608726 3.852495 32.261211 5.762493 12.714984 1.908748 26.814967 3.728745 42.349948 5.484993 15.567481 1.718748 31.228712 3.253746 46.982443 4.602494 15.723731 1.317498 31.012462 2.412497 45.796194 3.163746 14.784982 0.782499 27.751216 1.157499 38.903703 1.157499 11.152486 0 24.30122-0.37625 39.462452-1.157499 15.159981-0.752499 31.012462-1.847498 47.552442-3.163746 16.50623-1.347498 32.92121-2.977496 49.23494-4.919994 9.192489-1.074999 17.882478-2.244997 26.101218-3.503746 0 0-5.852493-162.766051-8.812489-163.56605C824.688993 660.534194 814.227756 657.057948 804.611518 653.237953L804.611518 653.237953zM891.166412 413.571995l121.812351 0c13.216234 0 23.927471-10.712487 23.927471-23.926221 0-13.213734-10.711237-23.926221-23.927471-23.926221l-121.812351 0c-13.213734 0-23.926221 10.712487-23.926221 23.926221C867.238941 402.858258 877.952678 413.571995 891.166412 413.571995L891.166412 413.571995zM1012.980013 490.449401l-121.812351 0c-13.213734 0-23.926221 10.711237-23.926221 23.924971 0 13.214984 10.712487 23.927471 23.926221 23.927471l121.812351 0c13.214984 0 23.926221-10.712487 23.926221-23.927471C1036.906234 501.160638 1026.194997 490.449401 1012.980013 490.449401L1012.980013 490.449401zM1012.980013 608.928007l-121.812351 0c-13.213734 0-23.926221 10.711237-23.926221 23.924971 0 13.214984 10.712487 23.926221 23.926221 23.926221l121.812351 0c13.214984 0 23.926221-10.711237 23.926221-23.926221C1036.906234 619.639244 1026.194997 608.928007 1012.980013 608.928007L1012.980013 608.928007zM836.027729 663.60794c0 0 31.213712 2.016248 53.971184 27.641216 0 0 13.437484 11.874986 16.981229 43.749947l0 56.249931c0 0-4.706244 29.087464-62.139924 35.924956L833.748982 702.499142 836.027729 663.60794z" fill="#272636"></path></g></g></svg>