<?xml version="1.0" standalone="no"?><!DOCTYPE svg PUBLIC "-//W3C//DTD SVG 1.1//EN" "http://www.w3.org/Graphics/SVG/1.1/DTD/svg11.dtd"><svg width="200" height="200" viewBox="0 0 200 200" version="1.1" xmlns="http://www.w3.org/2000/svg" xmlns:xlink="http://www.w3.org/1999/xlink"><defs><style type="text/css"><![CDATA[
@font-face { font-family: ifont; src: url("//at.alicdn.com/t/font_1442373896_4754455.eot?#iefix") format("embedded-opentype"), url("//at.alicdn.com/t/font_1442373896_4754455.woff") format("woff"), url("//at.alicdn.com/t/font_1442373896_4754455.ttf") format("truetype"), url("//at.alicdn.com/t/font_1442373896_4754455.svg#ifont") format("svg"); }

]]></style></defs><g class="transform-group"><g transform="scale(0.1953125, 0.1953125)"><path d="M511.374222 426.666667l-227.555556 0L284.444444 654.222222l226.929778 0L511.374222 426.666667zM681.870222 85.333333l0 117.361778L338.602667 202.695111 338.602667 85.333333 225.223111 85.333333l0 117.361778L202.296889 202.695111c-49.095111 0-88.064 38.4-88.064 85.333333L113.834667 853.333333c0 46.933333 39.367111 85.333333 88.462222 85.333333l619.349333 0c48.64 0 88.462222-38.4 88.462222-85.333333L910.108444 288.028444c0-46.933333-39.822222-85.333333-88.462222-85.333333l-26.453333 0L795.192889 85.333333 681.870222 85.333333zM795.818667 824.888889l-568.888889 0 0-455.111111 568.888889 0L795.818667 824.888889z" fill="#272636"></path></g></g></svg>