<?xml version="1.0" standalone="no"?><!DOCTYPE svg PUBLIC "-//W3C//DTD SVG 1.1//EN" "http://www.w3.org/Graphics/SVG/1.1/DTD/svg11.dtd"><svg width="200" height="200" viewBox="0 0 200 200" version="1.1" xmlns="http://www.w3.org/2000/svg" xmlns:xlink="http://www.w3.org/1999/xlink"><defs><style type="text/css"><![CDATA[
@font-face { font-family: ifont; src: url("//at.alicdn.com/t/font_1442373896_4754455.eot?#iefix") format("embedded-opentype"), url("//at.alicdn.com/t/font_1442373896_4754455.woff") format("woff"), url("//at.alicdn.com/t/font_1442373896_4754455.ttf") format("truetype"), url("//at.alicdn.com/t/font_1442373896_4754455.svg#ifont") format("svg"); }

]]></style></defs><g class="transform-group"><g transform="scale(0.1953125, 0.1953125)"><path d="M810.666667 128 213.333333 128C166.4 128 128 166.4 128 213.333333l0 597.333333c0 46.933333 38.4 85.333333 85.333333 85.333333l597.333333 0c46.933333 0 85.333333-38.4 85.333333-85.333333L896 213.333333C896 166.4 857.6 128 810.666667 128zM213.077333 520.149333c0-207.957333 125.994667-250.965333 211.84-250.965333L424.917333 174.805333l158.208 164.608-158.208 163.285333L424.917333 406.869333C414.208 406.869333 247.978667 393.941333 213.077333 520.149333zM213.333333 768l149.333333-192 106.666667 128.426667L618.666667 512l192 256L213.333333 768z" fill="#272636"></path></g></g></svg>