<?xml version="1.0" standalone="no"?><!DOCTYPE svg PUBLIC "-//W3C//DTD SVG 1.1//EN" "http://www.w3.org/Graphics/SVG/1.1/DTD/svg11.dtd"><svg width="200" height="200" viewBox="0 0 200 200" version="1.1" xmlns="http://www.w3.org/2000/svg" xmlns:xlink="http://www.w3.org/1999/xlink"><defs><style type="text/css"><![CDATA[
@font-face { font-family: ifont; src: url("//at.alicdn.com/t/font_1442373896_4754455.eot?#iefix") format("embedded-opentype"), url("//at.alicdn.com/t/font_1442373896_4754455.woff") format("woff"), url("//at.alicdn.com/t/font_1442373896_4754455.ttf") format("truetype"), url("//at.alicdn.com/t/font_1442373896_4754455.svg#ifont") format("svg"); }

]]></style></defs><g class="transform-group"><g transform="scale(0.1953125, 0.1953125)"><path d="M938.581333 612.608c0-113.194667-105.002667-205.269333-234.112-205.269333-129.066667 0-234.026667 92.074667-234.026667 205.269333 0 113.152 104.96 205.226667 234.026667 205.226667 19.669333 0 38.613333-2.346667 56.874667-6.4l34.773333 14.976 62.890667 27.050667-14.037333-49.365333-6.656-23.381333C898.858667 743.552 938.581333 682.112 938.581333 612.608zM614.186667 567.381333c-16.341333 0-29.568-13.952-29.568-31.189333 0-17.237333 13.226667-31.189333 29.568-31.189333 16.298667 0 29.568 13.952 29.568 31.189333C643.712 553.429333 630.485333 567.381333 614.186667 567.381333zM793.045333 567.381333c-16.298667 0-29.568-13.952-29.568-31.189333 0-17.237333 13.269333-31.189333 29.568-31.189333 16.298667 0 29.568 13.952 29.568 31.189333C822.570667 553.429333 809.344 567.381333 793.045333 567.381333zM704.512 383.445333c4.138667 0 8.192 0.426667 12.288 0.554667-35.456-122.666667-160.810667-213.504-310.528-213.504-177.194667 0-320.853333 127.104-320.853333 283.989333 0 96.554667 54.570667 181.674667 137.728 233.045333l-26.368 92.373333 121.898667-52.437333c27.904 6.997333 57.216 10.965333 87.594667 10.965333 26.965333 0 52.992-3.2 77.994667-8.789333-23.04-34.261333-36.48-74.24-36.48-117.12C447.829333 486.272 562.944 383.445333 704.512 383.445333zM516.053333 313.898667c19.029333 0 34.474667 16.298667 34.474667 36.394667s-15.445333 36.437333-34.474667 36.437333c-19.072 0-34.474667-16.341333-34.474667-36.437333S497.024 313.898667 516.053333 313.898667zM276.693333 386.730667c-19.029333 0-34.474667-16.341333-34.474667-36.437333s15.445333-36.394667 34.474667-36.394667c19.029333 0 34.474667 16.298667 34.474667 36.394667S295.722667 386.730667 276.693333 386.730667z" fill="#272636"></path></g></g></svg>