<?xml version="1.0" standalone="no"?><!DOCTYPE svg PUBLIC "-//W3C//DTD SVG 1.1//EN" "http://www.w3.org/Graphics/SVG/1.1/DTD/svg11.dtd"><svg width="200" height="200" viewBox="0 0 200 200" version="1.1" xmlns="http://www.w3.org/2000/svg" xmlns:xlink="http://www.w3.org/1999/xlink"><defs><style type="text/css"><![CDATA[
@font-face { font-family: ifont; src: url("//at.alicdn.com/t/font_1442373896_4754455.eot?#iefix") format("embedded-opentype"), url("//at.alicdn.com/t/font_1442373896_4754455.woff") format("woff"), url("//at.alicdn.com/t/font_1442373896_4754455.ttf") format("truetype"), url("//at.alicdn.com/t/font_1442373896_4754455.svg#ifont") format("svg"); }

]]></style></defs><g class="transform-group"><g transform="scale(0.1953125, 0.1953125)"><path d="M810.666667 896 213.333333 896c-46.933333 0-85.333333-38.4-85.333333-85.333333L128 213.333333c0-46.933333 38.4-85.333333 85.333333-85.333333l597.333333 0c46.933333 0 85.333333 38.4 85.333333 85.333333l0 597.333333C896 857.6 857.6 896 810.666667 896zM384 213.333333C306.432 213.333333 240.170667 266.325333 213.333333 341.205333c26.837333 74.837333 93.098667 127.872 170.666667 127.872 77.568 0 143.829333-53.034667 170.666667-127.872C527.829333 266.325333 461.568 213.333333 384 213.333333zM618.666667 512 469.333333 704.426667 362.666667 576 213.333333 768l597.333333 0L618.666667 512zM384 426.453333c-47.445333 0-85.930667-38.186667-85.930667-85.248 0-47.061333 38.485333-85.248 85.930667-85.248 47.445333 0 85.930667 38.186667 85.930667 85.248C469.930667 388.266667 431.445333 426.453333 384 426.453333zM384 298.154667c-23.765333 0-42.965333 19.242667-42.965333 43.093333S360.234667 384.298667 384 384.298667c23.765333 0 42.965333-19.242667 42.965333-43.050667S407.765333 298.154667 384 298.154667z" fill="#272636"></path></g></g></svg>