<?xml version="1.0" standalone="no"?><!DOCTYPE svg PUBLIC "-//W3C//DTD SVG 1.1//EN" "http://www.w3.org/Graphics/SVG/1.1/DTD/svg11.dtd"><svg width="200" height="200" viewBox="0 0 200 200" version="1.1" xmlns="http://www.w3.org/2000/svg" xmlns:xlink="http://www.w3.org/1999/xlink"><defs><style type="text/css"><![CDATA[
@font-face { font-family: ifont; src: url("//at.alicdn.com/t/font_1442373896_4754455.eot?#iefix") format("embedded-opentype"), url("//at.alicdn.com/t/font_1442373896_4754455.woff") format("woff"), url("//at.alicdn.com/t/font_1442373896_4754455.ttf") format("truetype"), url("//at.alicdn.com/t/font_1442373896_4754455.svg#ifont") format("svg"); }

]]></style></defs><g class="transform-group"><g transform="scale(0.1953125, 0.1953125)"><path d="M384 479.573333 384 320C384 261.12 431.786667 213.333333 490.666667 213.333333S597.333333 261.12 597.333333 320l0 159.573333c51.626667-34.56 85.333333-93.013333 85.333333-159.573333C682.666667 213.76 596.906667 128 490.666667 128S298.666667 213.76 298.666667 320C298.666667 386.56 332.373333 445.013333 384 479.573333zM803.84 677.12l-193.706667-96.426667c-7.253333-2.986667-14.933333-4.693333-23.04-4.693333L554.666667 576l0-256C554.666667 284.586667 526.08 256 490.666667 256S426.666667 284.586667 426.666667 320l0 458.24-146.346667-30.72c-3.413333-0.426667-6.4-1.28-10.24-1.28-13.226667 0-25.173333 5.546667-33.706667 14.08l-33.706667 34.133333 210.773333 210.773333C424.96 1016.746667 441.173333 1024 458.666667 1024l289.706667 0c32 0 56.746667-23.466667 61.44-54.613333l32-224.853333c0.426667-2.986667 0.853333-5.973333 0.853333-8.533333C842.666667 709.546667 826.453333 686.506667 803.84 677.12z" fill="#272636"></path></g></g></svg>