<?xml version="1.0" standalone="no"?><!DOCTYPE svg PUBLIC "-//W3C//DTD SVG 1.1//EN" "http://www.w3.org/Graphics/SVG/1.1/DTD/svg11.dtd"><svg width="200.390625" height="200" viewBox="0 0 200.390625 200" version="1.1" xmlns="http://www.w3.org/2000/svg" xmlns:xlink="http://www.w3.org/1999/xlink"><defs><style type="text/css"><![CDATA[
@font-face { font-family: ifont; src: url("//at.alicdn.com/t/font_1442373896_4754455.eot?#iefix") format("embedded-opentype"), url("//at.alicdn.com/t/font_1442373896_4754455.woff") format("woff"), url("//at.alicdn.com/t/font_1442373896_4754455.ttf") format("truetype"), url("//at.alicdn.com/t/font_1442373896_4754455.svg#ifont") format("svg"); }

]]></style></defs><g class="transform-group"><g transform="scale(0.1953125, 0.1953125)"><path d="M93.866667 186.026667 0 186.026667l0 744.106667c0 51.2 42.666667 93.866667 93.866667 93.866667l744.106667 0 0-93.866667L93.866667 930.133333 93.866667 186.026667zM930.133333 0 279.893333 0c-51.2 0-93.866667 42.666667-93.866667 93.866667l0 651.946667c0 51.2 42.666667 93.866667 93.866667 93.866667l651.946667 0c51.2 0 93.866667-42.666667 93.866667-93.866667L1025.706667 93.866667C1024 42.666667 981.333333 0 930.133333 0zM837.973333 465.92 651.946667 465.92l0 186.026667-93.866667 0L558.08 465.92 372.053333 465.92l0-93.866667 186.026667 0L558.08 186.026667l93.866667 0 0 186.026667 186.026667 0L837.973333 465.92z" fill="#272636"></path></g></g></svg>