<?xml version="1.0" standalone="no"?><!DOCTYPE svg PUBLIC "-//W3C//DTD SVG 1.1//EN" "http://www.w3.org/Graphics/SVG/1.1/DTD/svg11.dtd"><svg width="320.1171875" height="200" viewBox="0 0 320.1171875 200" version="1.1" xmlns="http://www.w3.org/2000/svg" xmlns:xlink="http://www.w3.org/1999/xlink"><defs><style type="text/css"><![CDATA[
@font-face { font-family: ifont; src: url("//at.alicdn.com/t/font_1442373896_4754455.eot?#iefix") format("embedded-opentype"), url("//at.alicdn.com/t/font_1442373896_4754455.woff") format("woff"), url("//at.alicdn.com/t/font_1442373896_4754455.ttf") format("truetype"), url("//at.alicdn.com/t/font_1442373896_4754455.svg#ifont") format("svg"); }

]]></style></defs><g class="transform-group"><g transform="scale(0.1953125, 0.1953125)"><path d="M1070.592 456.96c-153.856 0-278.912 109.696-278.912 244.608 0 134.784 125.056 244.608 278.912 244.608 23.424 0 46.08-2.816 67.84-7.68l41.472 17.792 75.008 32.256-16.768-58.88-7.936-27.904c72.192-44.288 119.552-117.504 119.552-200.32C1349.632 566.656 1224.448 456.96 1070.592 456.96zM962.944 647.68c-19.456 0-35.2-16.64-35.2-37.12 0-20.608 15.744-37.12 35.2-37.12 19.456 0 35.2 16.64 35.2 37.12C998.144 631.04 982.4 647.68 962.944 647.68zM1176.064 647.68c-19.456 0-35.2-16.64-35.2-37.12 0-20.608 15.872-37.12 35.2-37.12s35.2 16.64 35.2 37.12C1211.392 631.04 1195.52 647.68 1176.064 647.68zM1070.592 428.416c4.992 0 9.728 0.512 14.592 0.64-42.24-146.176-191.616-254.464-370.048-254.464-211.2 0-382.464 151.424-382.464 338.432 0 115.072 65.024 216.576 164.096 277.76l-31.36 110.08L610.816 838.4c33.28 8.32 68.224 13.056 104.448 13.056 32.128 0 63.104-3.84 92.928-10.496-27.52-40.832-43.52-88.448-43.52-139.52C764.672 551.04 901.888 428.416 1070.592 428.416zM845.952 345.6c22.656 0 41.088 19.456 41.088 43.392 0 23.936-18.432 43.392-41.088 43.392-22.784 0-41.088-19.456-41.088-43.392C804.992 364.928 823.296 345.6 845.952 345.6zM560.768 432.384c-22.656 0-41.088-19.456-41.088-43.392 0-23.936 18.432-43.392 41.088-43.392 22.656 0 41.088 19.456 41.088 43.392C601.856 412.928 583.424 432.384 560.768 432.384zM1137.536 292.864 1090.688 292.864 1215.488 433.152 1340.16 292.864 1293.44 292.864 1215.488 370.816ZM1168.64 136.96c1.408 13.056 0-0.256 0 31.232l-93.568 0 140.416 171.392 140.16-171.52-93.568 0c0 0 4.736-150.144-218.368-140.16C1043.84 27.904 1158.784 47.232 1168.64 136.96z" fill="#272636"></path></g></g></svg>