<?xml version="1.0" standalone="no"?><!DOCTYPE svg PUBLIC "-//W3C//DTD SVG 1.1//EN" "http://www.w3.org/Graphics/SVG/1.1/DTD/svg11.dtd"><svg width="320.1171875" height="200" viewBox="0 0 320.1171875 200" version="1.1" xmlns="http://www.w3.org/2000/svg" xmlns:xlink="http://www.w3.org/1999/xlink"><defs><style type="text/css"><![CDATA[
@font-face { font-family: ifont; src: url("//at.alicdn.com/t/font_1442373896_4754455.eot?#iefix") format("embedded-opentype"), url("//at.alicdn.com/t/font_1442373896_4754455.woff") format("woff"), url("//at.alicdn.com/t/font_1442373896_4754455.ttf") format("truetype"), url("//at.alicdn.com/t/font_1442373896_4754455.svg#ifont") format("svg"); }

]]></style></defs><g class="transform-group"><g transform="scale(0.1953125, 0.1953125)"><path d="M1263.872 159.232l-60.16 0 0 59.776 29.952 0 0 477.44L992.512 696.448l0 238.72L630.784 935.168 630.784 219.136l30.208 0 0-59.776-60.416 0c-16.512 0-30.208 13.44-30.208 29.824l0 775.936c0 16.384 13.696 29.824 30.208 29.824l474.752 0 218.496-216.32L1293.824 189.056C1293.824 172.8 1280.384 159.232 1263.872 159.232L1263.872 159.232 1263.872 159.232 1263.872 159.232zM1052.672 935.296l0-179.2 180.992 0L1052.672 935.296 1052.672 935.296zM1173.248 159.232l-120.576 0L1052.672 99.712c0-32.896-27.136-59.776-60.16-59.776l-120.576 0c-33.024 0-60.16 26.88-60.16 59.776l0 59.776-120.576 0 0 119.296 482.304 0L1173.248 159.232 1173.248 159.232 1173.248 159.232zM992.512 159.232l-120.576 0L871.936 99.712c0 0 0 0 0.256 0l120.32 0c0 0 0 0 0.256 0l0 59.52L992.512 159.232zM977.152 531.2 1051.264 531.2 1051.52 482.944 1002.496 482.944 1082.24 337.664 999.04 337.664 944.128 457.856 920.832 457.984 864.768 337.664 781.568 337.664 860.928 482.944 811.264 482.944 811.264 531.2 884.992 531.2 892.16 545.92 892.16 569.344 811.264 569.344 811.264 617.728 892.16 617.728 892.16 688 970.24 688 970.24 617.728 1051.52 617.728 1051.52 569.344 970.24 569.344 970.24 545.92Z" fill="#272636"></path></g></g></svg>