<?xml version="1.0" standalone="no"?><!DOCTYPE svg PUBLIC "-//W3C//DTD SVG 1.1//EN" "http://www.w3.org/Graphics/SVG/1.1/DTD/svg11.dtd"><svg width="200" height="200" viewBox="0 0 200 200" version="1.1" xmlns="http://www.w3.org/2000/svg" xmlns:xlink="http://www.w3.org/1999/xlink"><defs><style type="text/css"><![CDATA[
@font-face { font-family: ifont; src: url("//at.alicdn.com/t/font_1442373896_4754455.eot?#iefix") format("embedded-opentype"), url("//at.alicdn.com/t/font_1442373896_4754455.woff") format("woff"), url("//at.alicdn.com/t/font_1442373896_4754455.ttf") format("truetype"), url("//at.alicdn.com/t/font_1442373896_4754455.svg#ifont") format("svg"); }

]]></style></defs><g class="transform-group"><g transform="scale(0.1953125, 0.1953125)"><path d="M512 85.333333C276.48 85.333333 85.333333 276.48 85.333333 512s191.146667 426.666667 426.666667 426.666667c235.52 0 426.666667-191.146667 426.666667-426.666667S747.52 85.333333 512 85.333333zM572.16 771.84 572.16 853.333333l-113.92 0 0-82.346667c-72.96-15.36-134.826667-62.293333-139.52-145.066667l83.626667 0c4.266667 44.8 34.986667 79.786667 113.066667 79.786667 83.626667 0 102.4-41.813333 102.4-67.84 0-35.413333-18.773333-68.693333-113.92-91.306667-105.813333-25.6-178.346667-69.12-178.346667-156.586667 0-73.386667 59.306667-121.173333 132.693333-136.96L458.24 170.666667l113.92 0 0 83.2c79.36 19.2 119.04 79.36 121.6 144.64L610.133333 398.506667c-2.133333-47.36-27.306667-79.786667-94.72-79.786667-64 0-102.4 29.013333-102.4 69.973333 0 35.84 27.733333 59.306667 113.92 81.493333 86.186667 22.186667 178.346667 59.306667 178.346667 166.826667C704.853333 715.093333 646.4 757.76 572.16 771.84z" fill="#272636"></path></g></g></svg>