<?xml version="1.0" standalone="no"?><!DOCTYPE svg PUBLIC "-//W3C//DTD SVG 1.1//EN" "http://www.w3.org/Graphics/SVG/1.1/DTD/svg11.dtd"><svg width="200" height="200" viewBox="0 0 200 200" version="1.1" xmlns="http://www.w3.org/2000/svg" xmlns:xlink="http://www.w3.org/1999/xlink"><defs><style type="text/css"><![CDATA[
@font-face { font-family: ifont; src: url("//at.alicdn.com/t/font_1442373896_4754455.eot?#iefix") format("embedded-opentype"), url("//at.alicdn.com/t/font_1442373896_4754455.woff") format("woff"), url("//at.alicdn.com/t/font_1442373896_4754455.ttf") format("truetype"), url("//at.alicdn.com/t/font_1442373896_4754455.svg#ifont") format("svg"); }

]]></style></defs><g class="transform-group"><g transform="scale(0.1953125, 0.1953125)"><path d="M206.08 69.76c338.88 148.352 261.76 414.592 261.76 414.592L364.16 484.352l180.608 118.976 175.104-118.976L621.76 484.352c0 0 43.136-372.096-374.016-420.032C237.312 63.104 196.48 65.536 206.08 69.76zM781.44 640.704c-3.904-11.84-19.968-21.44-35.968-21.44L559.168 619.264 544.96 628.928 530.304 619.264 164.8 619.264c-15.936 0-25.792 9.6-22.016 21.44l96.96 297.92C243.584 950.464 259.648 960 275.648 960l580.736 0c16.064 0 25.856-9.536 22.016-21.376L781.44 640.704zM837.184 433.92l-152.128 0c-16.128-0.96-28.928 11.328-38.912 29.12l143.168 0L601.856 590.336l143.616 0c13.824 0.064 26.368 3.904 37.376 10.368 10.816 6.592 20.928 15.936 26.112 31.04l73.088 224.512 0-357.12C882.048 499.136 879.104 433.92 837.184 433.92zM243.392 557.376l0 32.896 242.88 0L392.32 528.448 272.384 528.448C256.32 528.448 243.392 541.44 243.392 557.376z" fill="#272636"></path></g></g></svg>