<?xml version="1.0" standalone="no"?><!DOCTYPE svg PUBLIC "-//W3C//DTD SVG 1.1//EN" "http://www.w3.org/Graphics/SVG/1.1/DTD/svg11.dtd"><svg width="320.1171875" height="200" viewBox="0 0 320.1171875 200" version="1.1" xmlns="http://www.w3.org/2000/svg" xmlns:xlink="http://www.w3.org/1999/xlink"><defs><style type="text/css"><![CDATA[
@font-face { font-family: ifont; src: url("//at.alicdn.com/t/font_1442373896_4754455.eot?#iefix") format("embedded-opentype"), url("//at.alicdn.com/t/font_1442373896_4754455.woff") format("woff"), url("//at.alicdn.com/t/font_1442373896_4754455.ttf") format("truetype"), url("//at.alicdn.com/t/font_1442373896_4754455.svg#ifont") format("svg"); }

]]></style></defs><g class="transform-group"><g transform="scale(0.1953125, 0.1953125)"><path d="M1133.056 345.216c-102.912 0-186.24 87.424-186.24 198.144s83.328 198.144 186.24 198.144c100.992 0 185.088-87.424 185.088-198.144S1234.048 345.216 1133.056 345.216zM1157.632 571.392l0 112.512-52.608 0 0-112.512-105.216 0 0-56.448 105.216 0 0-112.512 52.608 0 0 112.512 106.368 0 0 56.448L1157.632 571.392zM909.184 618.24c-49.152-189.696 72.96-230.784 57.216-247.296L686.848 92.288c-16.128-16.128-37.632-29.568-65.152-41.088-27.264-11.52-51.84-17.28-74.88-17.28l-264.96 0c-22.272 0-41.088 8.064-57.216 23.936-16.128 16.128-23.936 35.328-23.936 57.216l0 264.96c0 22.272 5.76 47.36 17.28 74.88s25.088 48.512 41.088 64.512l438.784 387.84c16.128 16.128 34.944 23.424 57.216 23.424s41.728-8.064 58.368-23.424l174.336-170.112C1002.112 721.664 930.688 701.184 909.184 618.24zM462.336 295.424c-16.128 16.128-35.328 23.936-57.6 23.936-22.272 0-41.728-8.064-57.6-23.936-16.128-16.128-23.936-35.328-23.936-57.6s8.064-41.728 23.936-57.6c16.128-16.128 35.328-23.936 57.6-23.936 22.272 0 41.728 8.064 57.6 23.936 16.128 16.128 23.936 35.328 23.936 57.6C486.4 260.096 478.336 279.552 462.336 295.424z" fill="#272636"></path></g></g></svg>