<?xml version="1.0" standalone="no"?><!DOCTYPE svg PUBLIC "-//W3C//DTD SVG 1.1//EN" "http://www.w3.org/Graphics/SVG/1.1/DTD/svg11.dtd"><svg width="200" height="200" viewBox="0 0 200 200" version="1.1" xmlns="http://www.w3.org/2000/svg" xmlns:xlink="http://www.w3.org/1999/xlink"><defs><style type="text/css"><![CDATA[
@font-face { font-family: ifont; src: url("//at.alicdn.com/t/font_1442373896_4754455.eot?#iefix") format("embedded-opentype"), url("//at.alicdn.com/t/font_1442373896_4754455.woff") format("woff"), url("//at.alicdn.com/t/font_1442373896_4754455.ttf") format("truetype"), url("//at.alicdn.com/t/font_1442373896_4754455.svg#ifont") format("svg"); }

]]></style></defs><g class="transform-group"><g transform="scale(0.1953125, 0.1953125)"><path d="M411.020228 410.917687l0-373.925097-373.925097 0 0 373.925097 67.986381 0 0 67.986381 67.986381 0 0-67.986381L411.020228 410.917687zM105.081512 342.931306l0-237.952335 237.952335 0 0 237.952335L105.081512 342.931306zM173.067893 172.965353l101.979572 0 0 101.979572-101.979572 0 0-101.979572ZM614.979372 36.99259l0 373.925097 373.925097 0 0-373.925097L614.979372 36.99259zM920.918088 342.931306l-237.952335 0 0-237.952335 237.952335 0L920.918088 342.931306zM750.952134 172.965353l101.979572 0 0 101.979572-101.979572 0 0-101.979572ZM37.09513 478.904069l67.986381 0 0 67.986381-67.986381 0 0-67.986381ZM173.067893 478.904069l67.986381 0 0 67.986381-67.986381 0 0-67.986381ZM241.054274 614.876832l-203.959144 0 0 373.925097 373.925097 0 0-373.925097-101.979572 0 0-67.986381-67.986381 0L241.054274 614.876832zM343.033846 682.863214l0 237.952335-237.952335 0 0-237.952335L343.033846 682.863214zM173.067893 750.849595l101.979572 0 0 101.979572-101.979572 0 0-101.979572ZM479.006609 70.985781l67.986381 0 0 101.979572-67.986381 0 0-101.979572ZM479.006609 240.951734l67.986381 0 0 67.986381-67.986381 0 0-67.986381ZM479.006609 376.924497l67.986381 0 0 101.979572-67.986381 0 0-101.979572ZM309.040656 478.904069l169.965953 0 0 67.986381-169.965953 0 0-67.986381ZM749.152495 474.50495c-151.769598 0-274.744965 122.975366-274.744965 274.744965 0 151.769598 122.975366 274.744965 274.744965 274.744965 151.769598 0 274.744965-122.975366 274.744965-274.744965C1023.897461 597.480317 900.922093 474.50495 749.152495 474.50495zM889.924296 787.642225l-102.379492 0 0 102.379492c0 21.195754-17.196555 38.392309-38.392309 38.392309-21.195754 0-38.392309-17.196555-38.392309-38.392309l0-102.379492-102.379492 0c-21.195754 0-38.392309-17.196555-38.392309-38.392309 0-21.195754 17.196555-38.392309 38.392309-38.392309l102.379492 0 0-102.379492c0-21.195754 17.196555-38.392309 38.392309-38.392309 21.195754 0 38.392309 17.196555 38.392309 38.392309l0 102.379492L889.924296 710.857606c21.195754 0 38.392309 17.196555 38.392309 38.392309C928.516566 770.44567 911.12005 787.642225 889.924296 787.642225z" fill="#272636"></path></g></g></svg>