<?xml version="1.0" standalone="no"?><!DOCTYPE svg PUBLIC "-//W3C//DTD SVG 1.1//EN" "http://www.w3.org/Graphics/SVG/1.1/DTD/svg11.dtd"><svg width="200" height="200" viewBox="0 0 200 200" version="1.1" xmlns="http://www.w3.org/2000/svg" xmlns:xlink="http://www.w3.org/1999/xlink"><defs><style type="text/css"><![CDATA[
@font-face { font-family: ifont; src: url("//at.alicdn.com/t/font_1442373896_4754455.eot?#iefix") format("embedded-opentype"), url("//at.alicdn.com/t/font_1442373896_4754455.woff") format("woff"), url("//at.alicdn.com/t/font_1442373896_4754455.ttf") format("truetype"), url("//at.alicdn.com/t/font_1442373896_4754455.svg#ifont") format("svg"); }

]]></style></defs><g class="transform-group"><g transform="scale(0.1953125, 0.1953125)"><path d="M597.333333 85.333333 256 85.333333C209.066667 85.333333 171.093333 123.733333 171.093333 170.666667L170.666667 853.333333c0 46.933333 37.973333 85.333333 84.906667 85.333333L768 938.666667c46.933333 0 85.333333-38.4 85.333333-85.333333L853.333333 341.333333 597.333333 85.333333zM768 853.333333 256 853.333333 256 170.666667l298.666667 0 0 213.333333 213.333333 0L768 853.333333zM341.333333 554.666667l341.333333 0 0-85.333333L341.333333 469.333333 341.333333 554.666667zM341.333333 725.333333l341.333333 0 0-85.333333L341.333333 640 341.333333 725.333333z" fill="#272636"></path></g></g></svg>