<?xml version="1.0" standalone="no"?><!DOCTYPE svg PUBLIC "-//W3C//DTD SVG 1.1//EN" "http://www.w3.org/Graphics/SVG/1.1/DTD/svg11.dtd"><svg width="200" height="200" viewBox="0 0 200 200" version="1.1" xmlns="http://www.w3.org/2000/svg" xmlns:xlink="http://www.w3.org/1999/xlink"><defs><style type="text/css"><![CDATA[
@font-face { font-family: ifont; src: url("//at.alicdn.com/t/font_1442373896_4754455.eot?#iefix") format("embedded-opentype"), url("//at.alicdn.com/t/font_1442373896_4754455.woff") format("woff"), url("//at.alicdn.com/t/font_1442373896_4754455.ttf") format("truetype"), url("//at.alicdn.com/t/font_1442373896_4754455.svg#ifont") format("svg"); }

]]></style></defs><g class="transform-group"><g transform="scale(0.1953125, 0.1953125)"><path d="M724.949333 788.949333c-82.645333 0-149.674667-66.901333-149.674667-149.418667s66.986667-149.418667 149.674667-149.418667 149.674667 66.901333 149.674667 149.418667S807.594667 788.949333 724.949333 788.949333zM810.794667 562.602667l-112.128 103.978667-59.392-59.904-30.037333 31.061333 86.784 89.642667 143.530667-131.029333L810.794667 562.602667zM426.581333 533.333333c-82.261333 0-148.906667-66.816-148.906667-149.248s66.645333-149.248 148.906667-149.248c82.261333 0 148.906667 66.773333 148.906667 149.248S508.842667 533.333333 426.581333 533.333333zM543.274667 598.144c-3.456 13.226667-5.504 27.008-5.504 41.301333 0 66.517333 25.856 123.690667 83.285333 149.76L149.418667 789.205333l0-69.290667c0-92.16 186.88-138.581333 280.533333-138.581333C462.378667 581.290667 500.053333 587.008 543.274667 598.144z" fill="#272636"></path></g></g></svg>