<?xml version="1.0" standalone="no"?><!DOCTYPE svg PUBLIC "-//W3C//DTD SVG 1.1//EN" "http://www.w3.org/Graphics/SVG/1.1/DTD/svg11.dtd"><svg width="200.5859375" height="200" viewBox="0 0 200.5859375 200" version="1.1" xmlns="http://www.w3.org/2000/svg" xmlns:xlink="http://www.w3.org/1999/xlink"><defs><style type="text/css"><![CDATA[
@font-face { font-family: ifont; src: url("//at.alicdn.com/t/font_1442373896_4754455.eot?#iefix") format("embedded-opentype"), url("//at.alicdn.com/t/font_1442373896_4754455.woff") format("woff"), url("//at.alicdn.com/t/font_1442373896_4754455.ttf") format("truetype"), url("//at.alicdn.com/t/font_1442373896_4754455.svg#ifont") format("svg"); }

]]></style></defs><g class="transform-group"><g transform="scale(0.1953125, 0.1953125)"><path d="M956.334802 254.872247c45.110132 78.942731 67.665198 164.651982 67.665198 257.127753 0 92.475771-22.555066 178.185022-67.665198 257.127753-45.110132 78.942731-108.264317 139.84141-187.207048 187.207048s-164.651982 67.665198-257.127753 67.665198-178.185022-22.555066-257.127753-67.665198c-78.942731-45.110132-139.84141-108.264317-187.207048-187.207048-45.110132-78.942731-67.665198-164.651982-67.665198-257.127753 0-92.475771 22.555066-178.185022 67.665198-257.127753 45.110132-78.942731 108.264317-139.84141 187.207048-187.207048 78.942731-45.110132 164.651982-67.665198 257.127753-67.665198s178.185022 22.555066 257.127753 67.665198C848.070485 115.030837 911.22467 175.929515 956.334802 254.872247zM811.982379 554.854626l0-85.709251c0-11.277533-4.511013-22.555066-13.53304-29.321586-9.022026-9.022026-18.044053-13.53304-29.321586-13.53304l-171.418502 0 0-171.418502c0-11.277533-4.511013-22.555066-13.53304-29.321586-9.022026-9.022026-18.044053-13.53304-29.321586-13.53304l-85.709251 0c-11.277533 0-22.555066 4.511013-29.321586 13.53304-9.022026 9.022026-13.53304 18.044053-13.53304 29.321586l0 171.418502-171.418502 0c-11.277533 0-22.555066 4.511013-29.321586 13.53304-9.022026 9.022026-13.53304 18.044053-13.53304 29.321586l0 85.709251c0 11.277533 4.511013 22.555066 13.53304 29.321586 9.022026 9.022026 18.044053 13.53304 29.321586 13.53304l171.418502 0L426.290749 766.872247c0 11.277533 4.511013 22.555066 13.53304 29.321586 9.022026 9.022026 18.044053 13.53304 29.321586 13.53304l85.709251 0c11.277533 0 22.555066-4.511013 29.321586-13.53304 9.022026-9.022026 13.53304-18.044053 13.53304-29.321586l0-171.418502L769.127753 595.453744c11.277533 0 22.555066-4.511013 29.321586-13.53304C807.471366 575.154185 811.982379 566.132159 811.982379 554.854626z" fill="#272636"></path></g></g></svg>