<?xml version="1.0" standalone="no"?><!DOCTYPE svg PUBLIC "-//W3C//DTD SVG 1.1//EN" "http://www.w3.org/Graphics/SVG/1.1/DTD/svg11.dtd"><svg width="200.1953125" height="200" viewBox="0 0 200.1953125 200" version="1.1" xmlns="http://www.w3.org/2000/svg" xmlns:xlink="http://www.w3.org/1999/xlink"><defs><style type="text/css"><![CDATA[
@font-face { font-family: ifont; src: url("//at.alicdn.com/t/font_1442373896_4754455.eot?#iefix") format("embedded-opentype"), url("//at.alicdn.com/t/font_1442373896_4754455.woff") format("woff"), url("//at.alicdn.com/t/font_1442373896_4754455.ttf") format("truetype"), url("//at.alicdn.com/t/font_1442373896_4754455.svg#ifont") format("svg"); }

]]></style></defs><g class="transform-group"><g transform="scale(0.1953125, 0.1953125)"><path d="M388.020814 387.704747 388.020814 0 0 0 0 387.704747 70.549333 387.704747 70.549333 458.196614 141.098667 458.196614 141.098667 387.704747 388.020814 387.704747 388.020814 387.704747ZM70.549333 317.21288 70.549333 70.491867 317.471482 70.491867 317.471482 317.21288 70.549333 317.21288 70.549333 317.21288ZM141.098667 140.983733 246.922147 140.983733 246.922147 246.721014 141.098667 246.721014 141.098667 140.983733 141.098667 140.983733ZM599.668814 0 599.668814 387.704747 987.689629 387.704747 987.689629 0 599.668814 0 599.668814 0ZM917.140296 317.21288 670.218149 317.21288 670.218149 70.491867 917.140296 70.491867 917.140296 317.21288 917.140296 317.21288ZM740.766443 140.983733 846.589925 140.983733 846.589925 246.721014 740.766443 246.721014 740.766443 140.983733 740.766443 140.983733ZM0 458.196614 70.549333 458.196614 70.549333 528.68848 0 528.68848 0 458.196614 0 458.196614ZM141.098667 458.196614 211.648 458.196614 211.648 528.68848 141.098667 528.68848 141.098667 458.196614 141.098667 458.196614ZM211.648 599.180347 0 599.180347 0 986.885094 388.020814 986.885094 388.020814 599.180347 282.197334 599.180347 282.197334 528.68848 211.648 528.68848 211.648 599.180347 211.648 599.180347ZM317.471482 669.672213 317.471482 916.393227 70.549333 916.393227 70.549333 669.672213 317.471482 669.672213 317.471482 669.672213ZM141.098667 740.16408 246.922147 740.16408 246.922147 845.901362 141.098667 845.901362 141.098667 740.16408 141.098667 740.16408ZM458.570149 35.246451 529.119482 35.246451 529.119482 140.983733 458.570149 140.983733 458.570149 35.246451 458.570149 35.246451ZM458.570149 211.4756 529.119482 211.4756 529.119482 281.967466 458.570149 281.967466 458.570149 211.4756 458.570149 211.4756ZM458.570149 352.459333 529.119482 352.459333 529.119482 458.196614 458.570149 458.196614 458.570149 352.459333 458.570149 352.459333ZM282.196296 458.196614 458.56911 458.196614 458.56911 528.68848 282.196296 528.68848 282.196296 458.196614 282.196296 458.196614ZM858.833552 991.239287C855.306448 991.239287 851.778307 991.031796 848.251203 990.410362L630.378598 958.066705C618.966648 956.407817 609.835843 950.809716 603.818898 941.687386 598.631554 933.808963 596.141712 924.06416 597.178973 913.905413 598.631554 898.356057 611.081803 884.672043 626.436174 881.355304 628.718357 880.940322 631.2082 880.526378 633.491419 880.526378 635.151661 880.526378 636.604242 880.526378 638.263445 880.733869L709.434718 891.307597C719.809406 892.758995 729.562154 894.002902 737.447 895.039318L568.751371 678.58809C562.734427 670.917158 560.036925 661.587336 560.866526 652.050024 561.903787 642.720203 566.46919 634.219307 573.731056 628.622245 577.465819 625.511958 581.823562 623.646618 586.387926 622.610202 588.670109 622.195219 590.745669 621.781275 593.027851 621.781275 603.817859 621.781275 614.400208 627.379376 622.077394 637.123141L719.186427 761.727555C720.846669 763.593934 723.128851 764.837842 725.411032 764.837842 726.034013 764.837842 726.448294 764.837842 727.071274 764.63035 728.108534 764.422859 729.145795 764.007878 729.976435 763.386443 731.636677 762.142536 732.673938 760.276157 732.673938 758.203325 732.881597 756.130493 732.466277 754.056622 731.013696 752.397734L698.021731 710.102821C692.004786 702.431888 689.099624 693.309558 689.721565 684.187227 690.344546 674.857406 694.70125 666.564002 701.964154 660.759448 702.379474 660.344467 708.18876 655.991312 716.488925 654.124933 718.771107 653.70995 721.26095 653.296006 723.33651 653.296006 733.711198 653.296006 743.463946 658.479125 751.348792 668.431419L792.017942 720.678624C793.678184 722.545003 795.960366 723.78891 798.242549 723.78891 798.865528 723.78891 799.27981 723.78891 799.902789 723.581419 800.94005 723.37393 801.977312 722.958947 802.80795 722.337514 806.128432 719.642208 806.542714 714.87407 804.052872 711.556294L778.945754 679.212637C766.495504 663.04081 768.155746 641.478371 782.888176 630.075718 783.095835 629.868227 783.095835 629.868227 783.303496 629.868227 783.926475 629.453246 789.320442 625.929016 797.206325 624.062637 799.903827 623.440165 802.39367 623.23371 805.091171 623.23371 815.881179 623.23371 825.426267 628.209339 832.688133 637.53916L862.152995 674.858445C863.813235 676.724824 866.095418 677.968731 868.3776 677.968731 869.000579 677.968731 869.414861 677.968731 870.037842 677.76124 871.075102 677.553749 872.112363 677.138768 872.943003 676.517333 874.810904 675.065934 875.432845 672.993102 875.640506 671.749195 875.848165 669.882816 875.225186 667.809984 873.980264 665.943605L859.040173 646.662528C853.023227 638.991595 850.118066 629.661774 850.740008 620.539443 851.362987 611.209622 855.719691 602.916218 862.982597 597.111664 864.019858 596.282739 869.622522 591.928546 877.507368 590.269658 879.78955 589.854675 881.86511 589.440731 884.147293 589.440731 894.521981 589.440731 904.274728 594.831341 912.159574 604.990088L991.631014 706.995648C1005.326184 724.411382 1015.700872 742.656043 1023.170398 760.900704 1023.793379 753.643715 1024 746.387765 1024 739.130776 1024 581.768762 896.388843 454.261552 738.898542 454.261552 581.408242 454.261552 453.797085 581.768762 453.797085 739.130776 453.797085 896.492791 581.408242 1024 738.898542 1024 787.867861 1024 833.725394 1011.767383 873.979226 989.998492 868.999542 990.620965 864.018819 991.242399 858.831475 991.242399L858.833552 991.239287Z" fill="#272636"></path></g></g></svg>