<?xml version="1.0" standalone="no"?><!DOCTYPE svg PUBLIC "-//W3C//DTD SVG 1.1//EN" "http://www.w3.org/Graphics/SVG/1.1/DTD/svg11.dtd"><svg width="200" height="200" viewBox="0 0 200 200" version="1.1" xmlns="http://www.w3.org/2000/svg" xmlns:xlink="http://www.w3.org/1999/xlink"><defs><style type="text/css"><![CDATA[
@font-face { font-family: ifont; src: url("//at.alicdn.com/t/font_1442373896_4754455.eot?#iefix") format("embedded-opentype"), url("//at.alicdn.com/t/font_1442373896_4754455.woff") format("woff"), url("//at.alicdn.com/t/font_1442373896_4754455.ttf") format("truetype"), url("//at.alicdn.com/t/font_1442373896_4754455.svg#ifont") format("svg"); }

]]></style></defs><g class="transform-group"><g transform="scale(0.1953125, 0.1953125)"><path d="M511.038604 268.604574c-296.667723 0-415.33645 296.6667-415.33645 296.6667s118.668727 296.674886 415.33645 296.674886c296.668747 0 415.337473-296.674886 415.337473-296.674886S807.70735 268.604574 511.038604 268.604574L511.038604 268.604574zM511.038604 743.274364c-98.271164 0-177.998997-79.671551-177.998997-178.00309 0-98.326423 79.727833-177.997973 177.998997-177.997973 98.272187 0 178.00309 79.671551 178.00309 177.997973C689.042717 663.602813 609.311815 743.274364 511.038604 743.274364L511.038604 743.274364zM511.038604 743.274364M600.04066 565.271274c0 49.140187-39.868009 89.002057-89.002057 89.002057-49.133024 0-89.001033-39.86187-89.001033-89.002057 0-49.134047 39.868009-88.99694 89.001033-88.99694C560.176744 476.270241 600.04066 516.137227 600.04066 565.271274L600.04066 565.271274zM600.04066 565.271274" fill="#272636"></path></g></g></svg>