<?xml version="1.0" standalone="no"?><!DOCTYPE svg PUBLIC "-//W3C//DTD SVG 1.1//EN" "http://www.w3.org/Graphics/SVG/1.1/DTD/svg11.dtd"><svg width="295.8984375" height="200" viewBox="0 0 295.8984375 200" version="1.1" xmlns="http://www.w3.org/2000/svg" xmlns:xlink="http://www.w3.org/1999/xlink"><defs><style type="text/css"><![CDATA[
@font-face { font-family: ifont; src: url("//at.alicdn.com/t/font_1442373896_4754455.eot?#iefix") format("embedded-opentype"), url("//at.alicdn.com/t/font_1442373896_4754455.woff") format("woff"), url("//at.alicdn.com/t/font_1442373896_4754455.ttf") format("truetype"), url("//at.alicdn.com/t/font_1442373896_4754455.svg#ifont") format("svg"); }

]]></style></defs><g class="transform-group"><g transform="scale(0.1953125, 0.1953125)"><path d="M1080.621589 591.142575c0-19.806685-7.048767-37.144548-21.146301-52.006575L650.906301 131.135123c-14.476274-14.483288-33.904219-26.764274-58.283836-36.856986-24.379616-10.092712-46.669151-15.142575-66.861589-15.142575L288.045589 79.135562c-19.806685 0-36.955178 7.245151-51.424438 21.714411-14.483288 14.476274-21.721425 31.617753-21.721425 51.431452l0 237.715288c0 20.192438 5.042849 42.467945 15.142575 66.854575s22.387726 43.618192 36.856986 57.715726l408.576 409.14411c14.097534 14.097534 31.239014 21.146301 51.424438 21.146301 19.813699 0 37.151562-7.048767 52.006575-21.146301l280.576-281.14411C1073.572822 628.462466 1080.621589 611.335014 1080.621589 591.142575zM449.47989 313.708712c-14.286904 14.286904-31.526575 21.433863-51.719014 21.433863-20.185425 0-37.425096-7.146959-51.712-21.433863s-21.426849-31.519562-21.426849-51.712 7.139945-37.43211 21.426849-51.712c14.286904-14.286904 31.526575-21.433863 51.712-21.433863 20.192438 0 37.43211 7.146959 51.719014 21.433863 14.27989 14.27989 21.426849 31.519562 21.426849 51.712S463.759781 299.421808 449.47989 313.708712zM1278.898849 539.143014 870.329863 131.142137c-14.476274-14.483288-33.904219-26.764274-58.290849-36.856986-24.372603-10.092712-46.662137-15.142575-66.854575-15.142575l-128 0c20.192438 0 42.474959 5.049863 66.854575 15.142575 24.38663 10.099726 43.814575 22.380712 58.290849 36.856986l408.568986 408.000877c14.104548 14.855014 21.160329 32.192877 21.160329 51.999562 0 20.192438-7.055781 37.31989-21.160329 51.424438l-268.568548 268.575562c11.439342 11.811068 21.525041 20.374795 30.285151 25.712219s20.003068 8.00263 33.714849 8.00263c19.813699 0 37.151562-7.048767 51.999562-21.146301l280.568986-281.14411c14.104548-14.104548 21.160329-31.232 21.160329-51.424438C1300.052164 571.33589 1293.003397 553.998027 1278.898849 539.143014z" fill="#272636"></path></g></g></svg>