<?xml version="1.0" standalone="no"?><!DOCTYPE svg PUBLIC "-//W3C//DTD SVG 1.1//EN" "http://www.w3.org/Graphics/SVG/1.1/DTD/svg11.dtd"><svg width="200" height="200" viewBox="0 0 200 200" version="1.1" xmlns="http://www.w3.org/2000/svg" xmlns:xlink="http://www.w3.org/1999/xlink"><defs><style type="text/css"><![CDATA[
@font-face { font-family: ifont; src: url("//at.alicdn.com/t/font_1442373896_4754455.eot?#iefix") format("embedded-opentype"), url("//at.alicdn.com/t/font_1442373896_4754455.woff") format("woff"), url("//at.alicdn.com/t/font_1442373896_4754455.ttf") format("truetype"), url("//at.alicdn.com/t/font_1442373896_4754455.svg#ifont") format("svg"); }

]]></style></defs><g class="transform-group"><g transform="scale(0.1953125, 0.1953125)"><path d="M913.493333 494.08l-384-384C514.133333 94.72 492.8 85.333333 469.333333 85.333333L170.666667 85.333333C123.733333 85.333333 85.333333 123.733333 85.333333 170.666667l0 298.666667c0 23.466667 9.386667 44.8 25.173333 60.586667l384 384C509.866667 929.28 531.2 938.666667 554.666667 938.666667s44.8-9.386667 60.16-25.173333l298.666667-298.666667C929.28 599.466667 938.666667 578.133333 938.666667 554.666667S928.853333 509.44 913.493333 494.08zM234.666667 298.666667C199.253333 298.666667 170.666667 270.08 170.666667 234.666667S199.253333 170.666667 234.666667 170.666667 298.666667 199.253333 298.666667 234.666667 270.08 298.666667 234.666667 298.666667z" fill="#272636"></path></g></g></svg>