<?xml version="1.0" standalone="no"?><!DOCTYPE svg PUBLIC "-//W3C//DTD SVG 1.1//EN" "http://www.w3.org/Graphics/SVG/1.1/DTD/svg11.dtd"><svg width="200" height="200" viewBox="0 0 200 200" version="1.1" xmlns="http://www.w3.org/2000/svg" xmlns:xlink="http://www.w3.org/1999/xlink"><defs><style type="text/css"><![CDATA[
@font-face { font-family: ifont; src: url("//at.alicdn.com/t/font_1442373896_4754455.eot?#iefix") format("embedded-opentype"), url("//at.alicdn.com/t/font_1442373896_4754455.woff") format("woff"), url("//at.alicdn.com/t/font_1442373896_4754455.ttf") format("truetype"), url("//at.alicdn.com/t/font_1442373896_4754455.svg#ifont") format("svg"); }

]]></style></defs><g class="transform-group"><g transform="scale(0.1953125, 0.1953125)"><path d="M580.422591 890.968148c0 37.765115-30.617553 68.38039-68.344305 68.38039l0 0c-37.804527 0-68.421056-30.615275-68.421056-68.38039L443.65723 132.008546c0-37.764092 30.616529-68.381413 68.421056-68.381413l0 0c37.726752 0 68.344305 30.616298 68.344305 68.381413L580.422591 890.968148zM891.535772 443.107957c37.803503 0 68.419009 30.616298 68.419009 68.381413l0 0c0 37.764092-30.615506 68.38039-68.419009 68.38039L132.545073 579.86976c-37.728799 0-68.347375-30.616298-68.347375-68.38039l0 0c0-37.765115 30.617553-68.381413 68.347375-68.381413L891.535772 443.107957z" fill="#272636"></path></g></g></svg>