<?xml version="1.0" standalone="no"?><!DOCTYPE svg PUBLIC "-//W3C//DTD SVG 1.1//EN" "http://www.w3.org/Graphics/SVG/1.1/DTD/svg11.dtd"><svg width="200" height="200" viewBox="0 0 200 200" version="1.1" xmlns="http://www.w3.org/2000/svg" xmlns:xlink="http://www.w3.org/1999/xlink"><defs><style type="text/css"><![CDATA[
@font-face { font-family: ifont; src: url("//at.alicdn.com/t/font_1442373896_4754455.eot?#iefix") format("embedded-opentype"), url("//at.alicdn.com/t/font_1442373896_4754455.woff") format("woff"), url("//at.alicdn.com/t/font_1442373896_4754455.ttf") format("truetype"), url("//at.alicdn.com/t/font_1442373896_4754455.svg#ifont") format("svg"); }

]]></style></defs><g class="transform-group"><g transform="scale(0.1953125, 0.1953125)"><path d="M341.333333 448 213.333333 448l0-128L128 320l0 128L0 448l0 85.333333 128 0 0 128 85.333333 0 0-128 128 0L341.333333 448zM768 490.666667c70.826667 0 127.573333-57.173333 127.573333-128s-56.746667-128-127.573333-128c-13.653333 0-26.88 2.133333-38.826667 5.973333 24.32 34.56 38.4 76.373333 38.4 122.026667s-14.506667 87.04-38.4 122.026667C741.12 488.533333 754.346667 490.666667 768 490.666667zM554.666667 490.666667c70.826667 0 127.573333-57.173333 127.573333-128s-56.746667-128-127.573333-128-128 57.173333-128 128S483.84 490.666667 554.666667 490.666667zM837.12 582.826667C872.533333 613.973333 896 653.653333 896 704l0 85.333333 128 0 0-85.333333C1024 638.293333 922.88 597.76 837.12 582.826667zM554.666667 576c-85.333333 0-256 42.666667-256 128l0 85.333333 512 0 0-85.333333C810.666667 618.666667 640 576 554.666667 576z" fill="#272636"></path></g></g></svg>