<?xml version="1.0" standalone="no"?><!DOCTYPE svg PUBLIC "-//W3C//DTD SVG 1.1//EN" "http://www.w3.org/Graphics/SVG/1.1/DTD/svg11.dtd"><svg width="218.359375" height="200" viewBox="0 0 218.359375 200" version="1.1" xmlns="http://www.w3.org/2000/svg" xmlns:xlink="http://www.w3.org/1999/xlink"><defs><style type="text/css"><![CDATA[
@font-face { font-family: ifont; src: url("//at.alicdn.com/t/font_1442373896_4754455.eot?#iefix") format("embedded-opentype"), url("//at.alicdn.com/t/font_1442373896_4754455.woff") format("woff"), url("//at.alicdn.com/t/font_1442373896_4754455.ttf") format("truetype"), url("//at.alicdn.com/t/font_1442373896_4754455.svg#ifont") format("svg"); }

]]></style></defs><g class="transform-group"><g transform="scale(0.1953125, 0.1953125)"><path d="M947.288355 558.915023c0 0.698179-0.139635 1.349811-0.139635 2.001445 8.052324-0.97745 16.151192-1.582537 24.389696-1.582537 25.553327 0 49.896478 4.840703 72.238184 13.405024 0.139635-4.701067 0.744723-9.215954 0.744723-13.917021 0-190.788864-119.947036-354.48841-291.512724-426.261142 0.093091 2.420352 0.372362 4.794158 0.372362 7.214509 0 31.092209-8.098869 60.322607-22.202071 86.10866C859.08516 286.718566 947.288355 412.809572 947.288355 558.915023zM145.82618 559.33393c8.331594 0 16.430463 0.651633 24.436242 1.582537 0-0.651633-0.093091-1.303266-0.093091-2.001445 0-146.105451 88.15665-272.196457 216.109464-333.031062-14.149747-25.786053-22.248616-55.016452-22.248616-86.10866 0-2.420352 0.279272-4.701067 0.372362-7.028329C193.06958 204.612795 73.262179 368.172704 73.262179 558.821933c0 4.654522 0.605088 9.122863 0.744723 13.777386C96.255519 564.081544 120.412489 559.33393 145.82618 559.33393zM558.915023 278.89897c80.523233 0 145.872726-62.463688 145.872726-139.449485S639.438258 0 558.915023 0c-80.569779 0-145.872726 62.463688-145.872726 139.449485S478.2987 278.89897 558.915023 278.89897zM971.538415 605.274065c-80.383598 0-145.546908 62.324052-145.546908 139.123668 0 76.846161 65.16331 139.123668 145.546908 139.123668S1117.085324 821.290439 1117.085324 744.397733C1117.085324 667.598117 1051.922013 605.274065 971.538415 605.274065zM291.093818 744.397733c0-76.799616-65.16331-139.123668-145.546908-139.123668C65.16331 605.274065 0 667.598117 0 744.397733c0 76.846161 65.16331 139.123668 145.546908 139.123668C225.930506 883.5214 291.093818 821.290439 291.093818 744.397733zM807.652689 844.46996c-67.444027 53.992457-154.20432 86.481023-248.923846 86.481023-94.766071 0-181.526365-32.488565-248.923846-86.481023-17.594094 26.530776-41.844155 48.639757-70.795282 63.766954C324.513286 980.102735 436.221819 1023.99488 558.915023 1023.99488c122.600114 0 234.262102-43.845599 319.719128-115.664877C849.636479 893.156261 825.246783 871.047281 807.652689 844.46996z" fill="#272636"></path></g></g></svg>