<?xml version="1.0" standalone="no"?><!DOCTYPE svg PUBLIC "-//W3C//DTD SVG 1.1//EN" "http://www.w3.org/Graphics/SVG/1.1/DTD/svg11.dtd"><svg width="200" height="200" viewBox="0 0 200 200" version="1.1" xmlns="http://www.w3.org/2000/svg" xmlns:xlink="http://www.w3.org/1999/xlink"><defs><style type="text/css"><![CDATA[
@font-face { font-family: ifont; src: url("//at.alicdn.com/t/font_1442373896_4754455.eot?#iefix") format("embedded-opentype"), url("//at.alicdn.com/t/font_1442373896_4754455.woff") format("woff"), url("//at.alicdn.com/t/font_1442373896_4754455.ttf") format("truetype"), url("//at.alicdn.com/t/font_1442373896_4754455.svg#ifont") format("svg"); }

]]></style></defs><g class="transform-group"><g transform="scale(0.1953125, 0.1953125)"><path d="M512 522.666667c52.906667 0 96-43.093333 96-96S564.906667 330.666667 512 330.666667c-52.906667 0-96 43.093333-96 96S459.093333 522.666667 512 522.666667zM704 693.333333c0-64-128-96-192-96-64 0-192 32-192 96L320 725.333333l384 0L704 693.333333zM810.666667 128 213.333333 128C166.4 128 128 166.4 128 213.333333l0 597.333333c0 46.933333 38.4 85.333333 85.333333 85.333333l597.333333 0c46.933333 0 85.333333-38.4 85.333333-85.333333L896 213.333333C896 166.4 857.6 128 810.666667 128zM810.666667 810.666667 213.333333 810.666667 213.333333 213.333333l597.333333 0L810.666667 810.666667z" fill="#272636"></path></g></g></svg>