<?xml version="1.0" standalone="no"?><!DOCTYPE svg PUBLIC "-//W3C//DTD SVG 1.1//EN" "http://www.w3.org/Graphics/SVG/1.1/DTD/svg11.dtd"><svg width="200" height="200" viewBox="0 0 200 200" version="1.1" xmlns="http://www.w3.org/2000/svg" xmlns:xlink="http://www.w3.org/1999/xlink"><defs><style type="text/css"><![CDATA[
@font-face { font-family: ifont; src: url("//at.alicdn.com/t/font_1442373896_4754455.eot?#iefix") format("embedded-opentype"), url("//at.alicdn.com/t/font_1442373896_4754455.woff") format("woff"), url("//at.alicdn.com/t/font_1442373896_4754455.ttf") format("truetype"), url("//at.alicdn.com/t/font_1442373896_4754455.svg#ifont") format("svg"); }

]]></style></defs><g class="transform-group"><g transform="scale(0.1953125, 0.1953125)"><path d="M512 209.066667c49.493333 0 89.6 40.106667 89.6 89.6 0 49.493333-40.106667 89.6-89.6 89.6S422.4 348.16 422.4 298.666667C422.4 249.173333 462.506667 209.066667 512 209.066667M512 593.066667c172.074667 0 256 104.96 256 132.266667l0 85.333333L256 810.666667l0-85.333333C256 698.026667 345.258667 593.066667 512 593.066667M512 128C417.706667 128 341.333333 204.373333 341.333333 298.666667c0 94.293333 76.373333 170.666667 170.666667 170.666667 94.293333 0 170.666667-76.373333 170.666667-170.666667C682.666667 204.373333 606.293333 128 512 128zM512 512c-169.898667 0-341.333333 99.84-341.333333 213.333333l0 170.666667 682.666667 0 0-170.666667C853.333333 611.84 680.576 512 512 512z" fill="#272636"></path></g></g></svg>