<?xml version="1.0" standalone="no"?><!DOCTYPE svg PUBLIC "-//W3C//DTD SVG 1.1//EN" "http://www.w3.org/Graphics/SVG/1.1/DTD/svg11.dtd"><svg width="230.859375" height="200" viewBox="0 0 230.859375 200" version="1.1" xmlns="http://www.w3.org/2000/svg" xmlns:xlink="http://www.w3.org/1999/xlink"><defs><style type="text/css"><![CDATA[
@font-face { font-family: ifont; src: url("//at.alicdn.com/t/font_1442373896_4754455.eot?#iefix") format("embedded-opentype"), url("//at.alicdn.com/t/font_1442373896_4754455.woff") format("woff"), url("//at.alicdn.com/t/font_1442373896_4754455.ttf") format("truetype"), url("//at.alicdn.com/t/font_1442373896_4754455.svg#ifont") format("svg"); }

]]></style></defs><g class="transform-group"><g transform="scale(0.1953125, 0.1953125)"><path d="M997.410271 772.924024c55.616849-59.531448 52.465474-152.890941-7.041354-208.53241-59.531448-55.592229-152.86632-52.440854-208.50779 7.090594-49.215618 52.687055-52.317753 131.816118-11.079054 187.90075L590.882862 940.808617l33.311021 53.056357 62.929025-4.702443-13.565686-65.341796 130.560492-131.668398C863.402962 834.523562 946.323524 827.580689 997.410271 772.924024zM864.313907 625.62185c-13.516445-12.654741-14.230429-33.901904-1.575688-47.41835 12.679361-13.565686 33.852664-14.230429 47.39373-1.575688 13.516445 12.654741 14.255049 33.852664 1.600308 47.369109C899.102135 637.562608 877.854972 638.276592 864.313907 625.62185zM420.585497 640.344682c0 0 8.1985 262.598192 143.609156 383.655318L0 1024l0-135.410656C0 888.589344 246.201193 687.51683 420.585497 640.344682zM697.586459 993.864974l0 30.135026L1181.765724 1024l0-137.454126-144.61858-102.592037c0 0-45.153299 104.610887-223.132141 82.058857L697.586459 993.864974zM851.462204 260.554722C851.462204 116.650125 734.787459 0 590.882862 0c-143.904597 0-260.554722 116.650125-260.554722 260.554722 0 99.366801 55.64147 185.70956 137.454126 229.656472l0 96.018465c0 54.385843 44.094634 98.480477 98.480477 98.480477l49.240239 0c54.385843 0 98.480477-44.094634 98.480477-98.480477l0-96.018465C795.796115 446.264282 851.462204 359.946143 851.462204 260.554722z" fill="#272636"></path></g></g></svg>