<?xml version="1.0" standalone="no"?><!DOCTYPE svg PUBLIC "-//W3C//DTD SVG 1.1//EN" "http://www.w3.org/Graphics/SVG/1.1/DTD/svg11.dtd"><svg width="200" height="200" viewBox="0 0 200 200" version="1.1" xmlns="http://www.w3.org/2000/svg" xmlns:xlink="http://www.w3.org/1999/xlink"><defs><style type="text/css"><![CDATA[
@font-face { font-family: ifont; src: url("//at.alicdn.com/t/font_1442373896_4754455.eot?#iefix") format("embedded-opentype"), url("//at.alicdn.com/t/font_1442373896_4754455.woff") format("woff"), url("//at.alicdn.com/t/font_1442373896_4754455.ttf") format("truetype"), url("//at.alicdn.com/t/font_1442373896_4754455.svg#ifont") format("svg"); }

]]></style></defs><g class="transform-group"><g transform="scale(0.1953125, 0.1953125)"><path d="M704 512c58.88 0 106.24-47.786667 106.24-106.666667S762.88 298.666667 704 298.666667 597.333333 346.453333 597.333333 405.333333 645.12 512 704 512zM384 469.333333c70.826667 0 127.573333-57.173333 127.573333-128S454.826667 213.333333 384 213.333333 256 270.506667 256 341.333333 313.173333 469.333333 384 469.333333zM704 597.333333c-78.08 0-234.666667 39.253333-234.666667 117.333333L469.333333 810.666667l469.333333 0 0-96C938.666667 636.586667 782.08 597.333333 704 597.333333zM384 554.666667c-99.413333 0-298.666667 49.92-298.666667 149.333333L85.333333 810.666667l298.666667 0 0-96c0-36.266667 14.08-99.84 101.12-148.053333C448 558.933333 412.16 554.666667 384 554.666667z" fill="#272636"></path></g></g></svg>