<?xml version="1.0" standalone="no"?><!DOCTYPE svg PUBLIC "-//W3C//DTD SVG 1.1//EN" "http://www.w3.org/Graphics/SVG/1.1/DTD/svg11.dtd"><svg width="200" height="200" viewBox="0 0 200 200" version="1.1" xmlns="http://www.w3.org/2000/svg" xmlns:xlink="http://www.w3.org/1999/xlink"><defs><style type="text/css"><![CDATA[
@font-face { font-family: ifont; src: url("//at.alicdn.com/t/font_1442373896_4754455.eot?#iefix") format("embedded-opentype"), url("//at.alicdn.com/t/font_1442373896_4754455.woff") format("woff"), url("//at.alicdn.com/t/font_1442373896_4754455.ttf") format("truetype"), url("//at.alicdn.com/t/font_1442373896_4754455.svg#ifont") format("svg"); }

]]></style></defs><g class="transform-group"><g transform="scale(0.1953125, 0.1953125)"><path d="M189.866667 665.6M292.266667 473.6m-64 0a3 3 0 1 0 128 0 3 3 0 1 0-128 0ZM518.4 473.6m-64 0a3 3 0 1 0 128 0 3 3 0 1 0-128 0ZM746.666667 473.6m-64 0a3 3 0 1 0 128 0 3 3 0 1 0-128 0ZM283.733333 940.8c-10.666667 0-23.466667-4.266667-32-12.8-17.066667-17.066667-19.2-46.933333 0-64l78.933333-81.066667c10.666667-10.666667 25.6-14.933333 40.533333-12.8 25.6 4.266667 100.266667 17.066667 138.666667 17.066667 232.533333 0 420.266667-140.8 420.266667-315.733333 0-174.933333-187.733333-315.733333-420.266667-315.733333-232.533333 0-420.266667 140.8-420.266667 315.733333C91.733333 546.133333 128 618.666667 192 676.266667c12.8 10.666667 27.733333 23.466667 42.666667 32 21.333333 12.8 27.733333 42.666667 12.8 64-12.8 21.333333-42.666667 27.733333-64 12.8-19.2-12.8-36.266667-25.6-53.333333-40.533333C46.933333 669.866667 0 573.866667 0 471.466667 0 247.466667 230.4 64 512 64c281.6 0 512 183.466667 512 407.466667 0 224-230.4 407.466667-512 407.466667-38.4 0-98.133333-8.533333-132.266667-14.933333l-64 64C307.2 936.533333 296.533333 940.8 283.733333 940.8z" fill="#272636"></path></g></g></svg>