<?xml version="1.0" standalone="no"?><!DOCTYPE svg PUBLIC "-//W3C//DTD SVG 1.1//EN" "http://www.w3.org/Graphics/SVG/1.1/DTD/svg11.dtd"><svg width="200" height="200" viewBox="0 0 200 200" version="1.1" xmlns="http://www.w3.org/2000/svg" xmlns:xlink="http://www.w3.org/1999/xlink"><defs><style type="text/css"><![CDATA[
@font-face { font-family: ifont; src: url("//at.alicdn.com/t/font_1442373896_4754455.eot?#iefix") format("embedded-opentype"), url("//at.alicdn.com/t/font_1442373896_4754455.woff") format("woff"), url("//at.alicdn.com/t/font_1442373896_4754455.ttf") format("truetype"), url("//at.alicdn.com/t/font_1442373896_4754455.svg#ifont") format("svg"); }

]]></style></defs><g class="transform-group"><g transform="scale(0.1953125, 0.1953125)"><path d="M256 85.333333l0 256 0.426667 0L256 341.76 426.666667 512l-170.666667 170.666667 0.426667 0.426667L256 683.093333 256 938.666667l512 0 0-255.573333-0.426667 0L768 682.666667l-170.666667-170.666667 170.666667-170.24L767.573333 341.333333 768 341.333333 768 85.333333 256 85.333333zM682.666667 704 682.666667 853.333333 341.333333 853.333333l0-149.333333 170.666667-170.666667L682.666667 704zM512 490.666667l-170.666667-170.666667L341.333333 170.666667l341.333333 0 0 149.333333L512 490.666667z" fill="#272636"></path></g></g></svg>