<?xml version="1.0" standalone="no"?><!DOCTYPE svg PUBLIC "-//W3C//DTD SVG 1.1//EN" "http://www.w3.org/Graphics/SVG/1.1/DTD/svg11.dtd"><svg width="200" height="200" viewBox="0 0 200 200" version="1.1" xmlns="http://www.w3.org/2000/svg" xmlns:xlink="http://www.w3.org/1999/xlink"><defs><style type="text/css"><![CDATA[
@font-face { font-family: ifont; src: url("//at.alicdn.com/t/font_1442373896_4754455.eot?#iefix") format("embedded-opentype"), url("//at.alicdn.com/t/font_1442373896_4754455.woff") format("woff"), url("//at.alicdn.com/t/font_1442373896_4754455.ttf") format("truetype"), url("//at.alicdn.com/t/font_1442373896_4754455.svg#ifont") format("svg"); }

]]></style></defs><g class="transform-group"><g transform="scale(0.1953125, 0.1953125)"><path d="M973.013138 660.098158c-3.034502-16.017837-13.315685-26.371269-26.501319-26.371269l-1.835151 0c-25.251393 0-45.799309-20.54069-45.799309-45.777634 0-6.62533 2.897227-14.767911 4.002653-17.318338 6.24963-14.07431 1.437776-31.356523-12.448684-40.973005l-53.544514-29.651422c-4.197728-1.806251-8.735031-2.731052-13.48186-2.731052-9.695957 0-19.283539 3.952078-25.634319 10.534058-6.66868 6.878205-24.384393 21.068115-36.580202 21.068115-12.325859 0-30.149947-14.471686-36.833077-21.451041-6.37968-6.74093-16.053962-10.765258-25.858294-10.765258-4.696253 0-9.168532 0.895901-13.17841 2.629902l-0.997051 0.411825-54.498215 29.925972-1.286051 0.838101c-12.679884 8.814506-17.513413 26.075044-11.299908 40.033754 0.41905 1.004276 4.060453 9.854907 4.060453 17.455613 0 25.236943-20.547915 45.784859-45.806534 45.784859l-2.124152 0c-12.882184 0-23.163367 10.353433-26.197869 26.378494-0.4624 2.470952-4.522853 24.608368-4.522853 42.526381 0 17.910788 4.060453 40.048204 4.522853 42.533606 3.034502 16.017837 13.30846 26.364044 26.508544 26.364044l1.813476 0c25.258618 0 45.806534 20.547915 45.806534 45.784859 0 6.62533-2.897227 14.767911-4.002653 17.318338-6.242405 14.05986-1.437776 31.320398 12.398109 40.973005l52.533013 29.268496c4.190503 1.820701 8.720581 2.767177 13.48186 2.767177 9.876582 0 19.558089-4.125478 25.894419-11.032583 6.46638-7.022705 24.839568-22.411966 37.389402-22.411966 12.687109 0 30.850773 15.418161 37.642278 22.859917 6.36523 7.02993 16.111762 11.213208 26.075044 11.213208 4.681803 0 9.139632-0.895901 14.565611-3.287377l53.125464-29.355197 1.264376-0.838101c12.650984-8.800056 17.477288-26.046144 11.278233-40.019304-0.41905-1.004276-4.060453-9.854907-4.060453-17.455613 0-25.236943 20.55514-45.777634 45.799309-45.777634l2.109702 0c12.896634 0 23.192267-10.360658 26.212319-26.335144 0.050575-0.21675 4.537303-23.741367 4.537303-42.576956C977.528766 684.720977 973.475538 662.58356 973.013138 660.098158L973.013138 660.098158zM759.167431 783.248374c-44.585508 0-80.869484-36.291202-80.869484-80.891159 0-44.592733 36.283977-80.876709 80.869484-80.876709 44.599958 0 80.876709 36.283977 80.876709 80.876709C840.051365 746.957172 803.767389 783.248374 759.167431 783.248374L759.167431 783.248374zM759.167431 783.248374M616.451902 465.514316c21.255966-37.750653 40.214379-81.65701 40.214379-123.713766 0-142.029154-93.354293-257.166838-208.506428-257.166838S239.653426 199.771396 239.653426 341.80055c0 88.06559 80.667184 193.059366 90.623241 212.14783 9.963282 19.081239 7.535681 48.161885-0.3179 56.976392-11.812884 13.243435-54.96784 26.501319-54.96784 26.501319l-159.202992 70.964002c-37.194327 13.35181-66.332774 48.42921-66.332774 88.015014l0 18.770564c0 43.198307 35.077401 69.620151 78.196232 69.620151l267.007296 0 91.519142 0 48.732661 0c-39.426854-47.83676-63.103196-109.12648-63.103196-175.957779C471.800071 603.800917 530.279263 512.440725 616.451902 465.514316L616.451902 465.514316zM616.451902 465.514316" fill="#272636"></path></g></g></svg>