<?xml version="1.0" standalone="no"?><!DOCTYPE svg PUBLIC "-//W3C//DTD SVG 1.1//EN" "http://www.w3.org/Graphics/SVG/1.1/DTD/svg11.dtd"><svg width="200" height="200" viewBox="0 0 200 200" version="1.1" xmlns="http://www.w3.org/2000/svg" xmlns:xlink="http://www.w3.org/1999/xlink"><defs><style type="text/css"><![CDATA[
@font-face { font-family: ifont; src: url("//at.alicdn.com/t/font_1442373896_4754455.eot?#iefix") format("embedded-opentype"), url("//at.alicdn.com/t/font_1442373896_4754455.woff") format("woff"), url("//at.alicdn.com/t/font_1442373896_4754455.ttf") format("truetype"), url("//at.alicdn.com/t/font_1442373896_4754455.svg#ifont") format("svg"); }

]]></style></defs><g class="transform-group"><g transform="scale(0.1953125, 0.1953125)"><path d="M825.6 428.373333C796.586667 281.173333 667.306667 170.666667 512 170.666667 388.693333 170.666667 281.6 240.64 228.266667 343.04 99.84 356.693333 0 465.493333 0 597.333333c0 141.226667 114.773333 256 256 256l554.666667 0c117.76 0 213.333333-95.573333 213.333333-213.333333C1024 527.36 936.533333 436.053333 825.6 428.373333zM810.666667 768 256 768c-94.293333 0-170.666667-76.373333-170.666667-170.666667s76.373333-170.666667 170.666667-170.666667l30.293333 0C314.453333 328.106667 404.48 256 512 256c129.706667 0 234.666667 104.96 234.666667 234.666667L746.666667 512 810.666667 512c70.826667 0 128 57.173333 128 128S881.493333 768 810.666667 768z" fill="#272636"></path></g></g></svg>