<?xml version="1.0" standalone="no"?><!DOCTYPE svg PUBLIC "-//W3C//DTD SVG 1.1//EN" "http://www.w3.org/Graphics/SVG/1.1/DTD/svg11.dtd"><svg width="200" height="200" viewBox="0 0 200 200" version="1.1" xmlns="http://www.w3.org/2000/svg" xmlns:xlink="http://www.w3.org/1999/xlink"><defs><style type="text/css"><![CDATA[
@font-face { font-family: ifont; src: url("//at.alicdn.com/t/font_1442373896_4754455.eot?#iefix") format("embedded-opentype"), url("//at.alicdn.com/t/font_1442373896_4754455.woff") format("woff"), url("//at.alicdn.com/t/font_1442373896_4754455.ttf") format("truetype"), url("//at.alicdn.com/t/font_1442373896_4754455.svg#ifont") format("svg"); }

]]></style></defs><g class="transform-group"><g transform="scale(0.1953125, 0.1953125)"><path d="M511.999488 62.768579c-248.086262 0-449.231421 201.11753-449.231421 449.231421 0 248.086262 201.14516 449.231421 449.231421 449.231421 248.087285 0 449.231421-201.14516 449.231421-449.231421C961.230909 263.886109 760.086773 62.768579 511.999488 62.768579zM175.075923 512c0-72.757071 23.068392-140.128481 62.287625-195.203844L707.238125 786.644127c-55.075363 39.216163-122.455983 62.279439-195.238636 62.279439C325.934792 848.923566 175.075923 698.119955 175.075923 512zM786.666128 707.207937 316.796668 237.363036c55.075363-39.21821 122.446773-62.286602 195.20282-62.286602 186.119955 0 336.923566 150.85887 336.923566 336.923566C848.923054 584.768327 825.868989 652.137691 786.666128 707.207937z" fill="#272636"></path></g></g></svg>