<?xml version="1.0" standalone="no"?><!DOCTYPE svg PUBLIC "-//W3C//DTD SVG 1.1//EN" "http://www.w3.org/Graphics/SVG/1.1/DTD/svg11.dtd"><svg width="200" height="200" viewBox="0 0 200 200" version="1.1" xmlns="http://www.w3.org/2000/svg" xmlns:xlink="http://www.w3.org/1999/xlink"><defs><style type="text/css"><![CDATA[
@font-face { font-family: ifont; src: url("//at.alicdn.com/t/font_1442373896_4754455.eot?#iefix") format("embedded-opentype"), url("//at.alicdn.com/t/font_1442373896_4754455.woff") format("woff"), url("//at.alicdn.com/t/font_1442373896_4754455.ttf") format("truetype"), url("//at.alicdn.com/t/font_1442373896_4754455.svg#ifont") format("svg"); }

]]></style></defs><g class="transform-group"><g transform="scale(0.1953125, 0.1953125)"><path d="M946.137577 200.902837l-92.752567 92.565301-123.690214-123.420061 92.752567-92.565301c17.090254-17.049322 44.786064-17.049322 61.855852 0l61.834362 61.710542C963.228854 156.241616 963.228854 183.853515 946.137577 200.902837zM296.560572 602.059734l123.691237 123.460993-164.858887 41.084762L296.560572 602.059734zM822.447363 324.322897l-371.029709 370.344093-123.691237-123.419037 371.051198-370.344093L822.447363 324.322897zM152.909728 197.825752l0 673.655423 673.633934 0 0-486.029998 87.866275-87.866275L914.409936 915.393335c0 24.284104-19.668988 43.912159-43.932626 43.912159l-761.500208 0c-24.263638 0-43.933649-19.628056-43.933649-43.912159L65.043454 153.913592c0-24.284104 19.668988-43.954115 43.933649-43.954115l620.281765 0-87.866275 87.866275L152.909728 197.825752z" fill="#272636"></path></g></g></svg>