<?xml version="1.0" standalone="no"?><!DOCTYPE svg PUBLIC "-//W3C//DTD SVG 1.1//EN" "http://www.w3.org/Graphics/SVG/1.1/DTD/svg11.dtd"><svg width="200" height="200" viewBox="0 0 200 200" version="1.1" xmlns="http://www.w3.org/2000/svg" xmlns:xlink="http://www.w3.org/1999/xlink"><defs><style type="text/css"><![CDATA[
@font-face { font-family: ifont; src: url("//at.alicdn.com/t/font_1442373896_4754455.eot?#iefix") format("embedded-opentype"), url("//at.alicdn.com/t/font_1442373896_4754455.woff") format("woff"), url("//at.alicdn.com/t/font_1442373896_4754455.ttf") format("truetype"), url("//at.alicdn.com/t/font_1442373896_4754455.svg#ifont") format("svg"); }

]]></style></defs><g class="transform-group"><g transform="scale(0.1953125, 0.1953125)"><path d="M526.165333 500.821333c70.826667 0 127.573333-57.173333 127.573333-128s-56.746667-128-127.573333-128c-70.826667 0-128 57.173333-128 128S455.338667 500.821333 526.165333 500.821333zM739.498667 500.821333c70.826667 0 127.573333-57.173333 127.573333-128s-56.746667-128-127.573333-128c-13.653333 0-26.88 2.133333-38.826667 5.973333 24.32 34.56 38.4 76.373333 38.4 122.026667s-14.506667 87.04-38.4 122.026667C712.618667 498.688 725.845333 500.821333 739.498667 500.821333zM526.165333 586.154667c-85.333333 0-256 42.666667-256 128l0 85.333333 512 0 0-85.333333C782.165333 628.821333 611.498667 586.154667 526.165333 586.154667zM808.618667 592.981333c35.413333 31.146667 58.88 70.826667 58.88 121.173333l0 85.333333 128 0 0-85.333333C995.498667 648.448 894.378667 607.914667 808.618667 592.981333zM99.2 371.370667l0 213.12 84.48 0L183.68 224.512 28.501333 371.370667 99.2 371.370667zM312.618667 501.632 312.618667 287.189333l-84.48 0 0 363.989333 151.168-149.546667L312.618667 501.632z" fill="#272636"></path></g></g></svg>