<?xml version="1.0" standalone="no"?><!DOCTYPE svg PUBLIC "-//W3C//DTD SVG 1.1//EN" "http://www.w3.org/Graphics/SVG/1.1/DTD/svg11.dtd"><svg width="200" height="200" viewBox="0 0 200 200" version="1.1" xmlns="http://www.w3.org/2000/svg" xmlns:xlink="http://www.w3.org/1999/xlink"><defs><style type="text/css"><![CDATA[
@font-face { font-family: ifont; src: url("//at.alicdn.com/t/font_1442373896_4754455.eot?#iefix") format("embedded-opentype"), url("//at.alicdn.com/t/font_1442373896_4754455.woff") format("woff"), url("//at.alicdn.com/t/font_1442373896_4754455.ttf") format("truetype"), url("//at.alicdn.com/t/font_1442373896_4754455.svg#ifont") format("svg"); }

]]></style></defs><g class="transform-group"><g transform="scale(0.1953125, 0.1953125)"><path d="M426.666667 514.688c94.293333 0 170.666667-76.373333 170.666667-170.666667 0-94.293333-76.373333-170.666667-170.666667-170.666667-94.293333 0-170.666667 76.373333-170.666667 170.666667C256 438.272 332.373333 514.688 426.666667 514.688zM426.666667 254.378667c49.493333 0 89.6 40.106667 89.6 89.6 0 49.493333-40.106667 89.6-89.6 89.6-49.493333 0-89.6-40.106667-89.6-89.6C337.066667 294.485333 377.173333 254.378667 426.666667 254.378667zM426.666667 557.354667c-113.92 0-341.333333 57.173333-341.333333 170.666667l0 128 682.666667 0 0-128C768 614.485333 540.586667 557.354667 426.666667 557.354667zM686.933333 774.912 166.4 774.912l0-46.933333c0-27.306667 133.546667-89.6 260.266667-89.6 126.72 0 260.266667 62.293333 260.266667 89.6L686.933333 774.912zM682.666667 173.354667l0 85.333333 256 0 0-85.333333L682.666667 173.354667zM682.666667 386.688l256 0 0-85.333333-256 0L682.666667 386.688zM682.666667 514.688l256 0 0-85.333333-256 0L682.666667 514.688z" fill="#272636"></path></g></g></svg>