<?xml version="1.0" standalone="no"?><!DOCTYPE svg PUBLIC "-//W3C//DTD SVG 1.1//EN" "http://www.w3.org/Graphics/SVG/1.1/DTD/svg11.dtd"><svg width="320.1171875" height="200" viewBox="0 0 320.1171875 200" version="1.1" xmlns="http://www.w3.org/2000/svg" xmlns:xlink="http://www.w3.org/1999/xlink"><defs><style type="text/css"><![CDATA[
@font-face { font-family: ifont; src: url("//at.alicdn.com/t/font_1442373896_4754455.eot?#iefix") format("embedded-opentype"), url("//at.alicdn.com/t/font_1442373896_4754455.woff") format("woff"), url("//at.alicdn.com/t/font_1442373896_4754455.ttf") format("truetype"), url("//at.alicdn.com/t/font_1442373896_4754455.svg#ifont") format("svg"); }

]]></style></defs><g class="transform-group"><g transform="scale(0.1953125, 0.1953125)"><path d="M853.3696 728.46848c-5.824 0-12.37504-2.91072-16.74368-7.28064L497.39264 381.95584c-4.36736-4.36736-7.27936-10.91968-7.27936-16.74368s2.912-12.37504 7.27936-16.74368l36.39936-36.39936c4.36736-4.36736 10.91968-7.27936 16.74368-7.27936s12.37504 2.912 16.74368 7.27936l286.09152 286.09152 286.09152-286.09152c4.36864-4.36736 10.91968-7.27936 16.74368-7.27936 6.55104 0 12.37504 2.912 16.74368 7.27936l36.39808 36.39936c4.36864 4.36736 7.28064 10.91968 7.28064 16.74368s-2.91072 12.37504-7.28064 16.74368L870.11328 721.18912C865.74464 725.55776 859.1936 728.46848 853.3696 728.46848z" fill="#272636"></path></g></g></svg>