<?xml version="1.0" standalone="no"?><!DOCTYPE svg PUBLIC "-//W3C//DTD SVG 1.1//EN" "http://www.w3.org/Graphics/SVG/1.1/DTD/svg11.dtd"><svg width="320.1171875" height="200" viewBox="0 0 320.1171875 200" version="1.1" xmlns="http://www.w3.org/2000/svg" xmlns:xlink="http://www.w3.org/1999/xlink"><defs><style type="text/css"><![CDATA[
@font-face { font-family: ifont; src: url("//at.alicdn.com/t/font_1442373896_4754455.eot?#iefix") format("embedded-opentype"), url("//at.alicdn.com/t/font_1442373896_4754455.woff") format("woff"), url("//at.alicdn.com/t/font_1442373896_4754455.ttf") format("truetype"), url("//at.alicdn.com/t/font_1442373896_4754455.svg#ifont") format("svg"); }

]]></style></defs><g class="transform-group"><g transform="scale(0.1953125, 0.1953125)"><path d="M1057.92 533.376l-339.2 339.2c-4.352 4.352-10.88 7.296-16.768 7.296s-12.416-2.944-16.768-7.296l-36.352-36.352c-4.352-4.352-7.296-10.24-7.296-16.768 0-5.76 2.944-12.416 7.296-16.768l286.08-286.08L648.832 230.528c-4.352-4.352-7.296-10.88-7.296-16.768s2.944-12.416 7.296-16.768l36.352-36.352c4.352-4.352 10.88-7.296 16.768-7.296s12.416 2.944 16.768 7.296l339.2 339.2c4.352 4.352 7.296 10.88 7.296 16.768S1062.272 529.024 1057.92 533.376z" fill="#272636"></path></g></g></svg>