<?xml version="1.0" standalone="no"?><!DOCTYPE svg PUBLIC "-//W3C//DTD SVG 1.1//EN" "http://www.w3.org/Graphics/SVG/1.1/DTD/svg11.dtd"><svg width="200" height="200" viewBox="0 0 200 200" version="1.1" xmlns="http://www.w3.org/2000/svg" xmlns:xlink="http://www.w3.org/1999/xlink"><defs><style type="text/css"><![CDATA[
@font-face { font-family: ifont; src: url("//at.alicdn.com/t/font_1442373896_4754455.eot?#iefix") format("embedded-opentype"), url("//at.alicdn.com/t/font_1442373896_4754455.woff") format("woff"), url("//at.alicdn.com/t/font_1442373896_4754455.ttf") format("truetype"), url("//at.alicdn.com/t/font_1442373896_4754455.svg#ifont") format("svg"); }

]]></style></defs><g class="transform-group"><g transform="scale(0.1953125, 0.1953125)"><path d="M853.333333 277.333333l-93.013333 0C765.013333 264.106667 768 249.6 768 234.666667c0-70.826667-57.173333-128-128-128-44.8 0-83.626667 23.04-106.666667 57.6L512 192.853333l-21.333333-29.013333C467.626667 129.706667 428.8 106.666667 384 106.666667c-70.826667 0-128 57.173333-128 128 0 14.933333 2.986667 29.44 7.68 42.666667L170.666667 277.333333c-47.36 0-84.906667 37.973333-84.906667 85.333333L85.333333 832c0 47.36 37.973333 85.333333 85.333333 85.333333l682.666667 0c47.36 0 85.333333-37.973333 85.333333-85.333333l0-469.333333C938.666667 315.306667 900.693333 277.333333 853.333333 277.333333zM640 192c23.466667 0 42.666667 19.2 42.666667 42.666667s-19.2 42.666667-42.666667 42.666667-42.666667-19.2-42.666667-42.666667S616.533333 192 640 192zM384 192c23.466667 0 42.666667 19.2 42.666667 42.666667s-19.2 42.666667-42.666667 42.666667-42.666667-19.2-42.666667-42.666667S360.533333 192 384 192zM853.333333 832 170.666667 832l0-85.333333 682.666667 0L853.333333 832zM853.333333 618.666667 170.666667 618.666667l0-256 216.746667 0L298.666667 483.413333l69.12 49.92L469.333333 395.093333l42.666667-58.026667 42.666667 58.026667 101.546667 138.24L725.333333 483.413333 636.586667 362.666667 853.333333 362.666667 853.333333 618.666667z" fill="#272636"></path></g></g></svg>