<?xml version="1.0" standalone="no"?><!DOCTYPE svg PUBLIC "-//W3C//DTD SVG 1.1//EN" "http://www.w3.org/Graphics/SVG/1.1/DTD/svg11.dtd"><svg width="200" height="200" viewBox="0 0 200 200" version="1.1" xmlns="http://www.w3.org/2000/svg" xmlns:xlink="http://www.w3.org/1999/xlink"><defs><style type="text/css"><![CDATA[
@font-face { font-family: ifont; src: url("//at.alicdn.com/t/font_1442373896_4754455.eot?#iefix") format("embedded-opentype"), url("//at.alicdn.com/t/font_1442373896_4754455.woff") format("woff"), url("//at.alicdn.com/t/font_1442373896_4754455.ttf") format("truetype"), url("//at.alicdn.com/t/font_1442373896_4754455.svg#ifont") format("svg"); }

]]></style></defs><g class="transform-group"><g transform="scale(0.1953125, 0.1953125)"><path d="M985.6 435.2l-44.8 0c-19.2 0-44.8-19.2-51.2-38.4l-25.6-64c-12.8-19.2-6.4-44.8 6.4-64l32-32c12.8-12.8 12.8-38.4 0-57.6l-57.6-57.6c-12.8-12.8-38.4-12.8-57.6 0l-32 32c-12.8 12.8-44.8 19.2-64 6.4l-64-25.6C608 134.4 588.8 108.8 588.8 89.6L588.8 38.4C588.8 19.2 576 0 550.4 0L473.6 0C448 0 435.2 19.2 435.2 38.4l0 44.8c0 19.2-19.2 44.8-38.4 51.2l-64 25.6c-19.2 12.8-44.8 6.4-64-6.4L230.4 121.6C217.6 108.8 192 108.8 179.2 121.6L121.6 179.2C108.8 192 108.8 217.6 121.6 230.4l32 32c12.8 12.8 19.2 44.8 6.4 64l-25.6 64C134.4 416 108.8 435.2 89.6 435.2l-44.8 0C19.2 435.2 0 448 0 473.6l0 76.8C0 576 19.2 588.8 38.4 588.8l44.8 0c19.2 0 44.8 19.2 51.2 38.4l25.6 64c12.8 19.2 6.4 44.8-6.4 64l-32 32c-12.8 12.8-12.8 38.4 0 57.6l57.6 57.6c12.8 12.8 38.4 12.8 57.6 0l32-32c12.8-12.8 44.8-19.2 64-6.4l64 25.6c19.2 6.4 38.4 32 38.4 51.2l0 44.8C435.2 1004.8 448 1024 473.6 1024l76.8 0c19.2 0 38.4-19.2 38.4-38.4l0-44.8c0-19.2 19.2-44.8 38.4-51.2l64-25.6c19.2-12.8 44.8-6.4 64 6.4l32 32c12.8 12.8 38.4 12.8 57.6 0l57.6-57.6c12.8-12.8 12.8-38.4 0-57.6l-32-32c-12.8-12.8-19.2-44.8-6.4-64l25.6-64c6.4-19.2 32-38.4 51.2-38.4l44.8 0C1004.8 588.8 1024 576 1024 550.4L1024 473.6C1024 448 1004.8 435.2 985.6 435.2M710.4 512c0 108.8-89.6 198.4-198.4 198.4-108.8 0-198.4-89.6-198.4-198.4 0-108.8 89.6-198.4 198.4-198.4C620.8 313.6 710.4 403.2 710.4 512" fill="#272636"></path></g></g></svg>