<?xml version="1.0" standalone="no"?><!DOCTYPE svg PUBLIC "-//W3C//DTD SVG 1.1//EN" "http://www.w3.org/Graphics/SVG/1.1/DTD/svg11.dtd"><svg width="200" height="200" viewBox="0 0 200 200" version="1.1" xmlns="http://www.w3.org/2000/svg" xmlns:xlink="http://www.w3.org/1999/xlink"><defs><style type="text/css"><![CDATA[
@font-face { font-family: ifont; src: url("//at.alicdn.com/t/font_1442373896_4754455.eot?#iefix") format("embedded-opentype"), url("//at.alicdn.com/t/font_1442373896_4754455.woff") format("woff"), url("//at.alicdn.com/t/font_1442373896_4754455.ttf") format("truetype"), url("//at.alicdn.com/t/font_1442373896_4754455.svg#ifont") format("svg"); }

]]></style></defs><g class="transform-group"><g transform="scale(0.1953125, 0.1953125)"><path d="M490.496 661.333333c0-153.173333 124.16-277.333333 277.333333-277.333333 5.376 0 10.368 1.28 15.658667 1.578667L507.989333 110.08C492.629333 94.72 471.296 85.333333 447.829333 85.333333l-298.666667 0c-46.933333 0-85.333333 38.4-85.333333 85.333333l0 298.666667c0 23.466667 9.386667 44.8 25.173333 60.586667l384 384c15.36 15.36 36.693333 24.746667 60.16 24.746667s44.8-9.386667 60.16-25.173333l21.205333-21.205333C539.818667 842.581333 490.496 757.802667 490.496 661.333333zM213.162667 298.666667c-35.413333 0-64-28.586667-64-64S177.749333 170.666667 213.162667 170.666667s64 28.586667 64 64S248.576 298.666667 213.162667 298.666667zM954.794667 715.093333l-41.941333-34.56 0-38.4 41.941333-30.72c3.797333-3.84 3.797333-7.68 3.797333-11.52l-38.144-65.28c-3.797333-3.84-7.637333-7.68-11.434667-3.84l-49.578667 15.36c-11.434667-7.68-22.869333-15.36-34.304-19.2l-7.637333-49.92c0-3.84-3.797333-7.68-11.434667-7.68l-76.245333 0c-3.797333 0-7.637333 3.84-11.434667 7.68l-7.637333 49.92c-11.434667 3.84-22.869333 11.52-34.304 19.2l-49.578667-19.2c-3.797333 0-7.637333 0-11.434667 3.84l-38.144 65.28c-3.797333 3.84 0 7.68 3.797333 11.52l41.941333 30.72 0 38.4-41.941333 30.72c-3.797333 7.68-3.797333 11.52-3.797333 15.36l38.144 65.28c3.797333 3.84 7.637333 7.68 11.434667 3.84l53.376-15.36c11.434667 7.68 22.869333 15.36 34.304 19.2l7.637333 49.92C718.378667 849.493333 726.016 853.333333 729.813333 853.333333l76.245333 0c3.797333 0 7.637333-3.84 11.434667-7.68l7.637333-49.92c11.434667-3.84 22.869333-11.52 34.304-19.2l49.578667 19.2c3.797333 0 7.637333 0 11.434667-3.84l38.144-65.28C962.389333 722.773333 958.592 718.933333 954.794667 715.093333zM767.957333 738.133333c-41.941333 0-76.245333-34.56-76.245333-76.8s34.304-76.8 76.245333-76.8c41.941333 0 76.245333 34.56 76.245333 76.8S809.898667 738.133333 767.957333 738.133333z" fill="#272636"></path></g></g></svg>