<?xml version="1.0" standalone="no"?><!DOCTYPE svg PUBLIC "-//W3C//DTD SVG 1.1//EN" "http://www.w3.org/Graphics/SVG/1.1/DTD/svg11.dtd"><svg width="200" height="200" viewBox="0 0 200 200" version="1.1" xmlns="http://www.w3.org/2000/svg" xmlns:xlink="http://www.w3.org/1999/xlink"><defs><style type="text/css"><![CDATA[
@font-face { font-family: ifont; src: url("//at.alicdn.com/t/font_1442373896_4754455.eot?#iefix") format("embedded-opentype"), url("//at.alicdn.com/t/font_1442373896_4754455.woff") format("woff"), url("//at.alicdn.com/t/font_1442373896_4754455.ttf") format("truetype"), url("//at.alicdn.com/t/font_1442373896_4754455.svg#ifont") format("svg"); }

]]></style></defs><g class="transform-group"><g transform="scale(0.1953125, 0.1953125)"><path d="M170.666667 448c-35.413333 0-64 28.586667-64 64s28.586667 64 64 64 64-28.586667 64-64S206.08 448 170.666667 448zM170.666667 192C135.253333 192 106.666667 220.586667 106.666667 256S135.253333 320 170.666667 320 234.666667 291.413333 234.666667 256 206.08 192 170.666667 192zM170.666667 711.253333c-31.573333 0-56.746667 25.6-56.746667 56.746667s25.6 56.746667 56.746667 56.746667 56.746667-25.6 56.746667-56.746667S202.24 711.253333 170.666667 711.253333zM298.666667 810.666667l597.333333 0 0-85.333333L298.666667 725.333333 298.666667 810.666667zM298.666667 554.666667l597.333333 0 0-85.333333L298.666667 469.333333 298.666667 554.666667zM298.666667 213.333333l0 85.333333 597.333333 0L896 213.333333 298.666667 213.333333z" fill="#272636"></path></g></g></svg>