<?xml version="1.0" standalone="no"?><!DOCTYPE svg PUBLIC "-//W3C//DTD SVG 1.1//EN" "http://www.w3.org/Graphics/SVG/1.1/DTD/svg11.dtd"><svg width="200" height="200" viewBox="0 0 200 200" version="1.1" xmlns="http://www.w3.org/2000/svg" xmlns:xlink="http://www.w3.org/1999/xlink"><defs><style type="text/css"><![CDATA[
@font-face { font-family: ifont; src: url("//at.alicdn.com/t/font_1442373896_4754455.eot?#iefix") format("embedded-opentype"), url("//at.alicdn.com/t/font_1442373896_4754455.woff") format("woff"), url("//at.alicdn.com/t/font_1442373896_4754455.ttf") format("truetype"), url("//at.alicdn.com/t/font_1442373896_4754455.svg#ifont") format("svg"); }

]]></style></defs><g class="transform-group"><g transform="scale(0.1953125, 0.1953125)"><path d="M799.530111 945.57586 270.735609 945.57586c-101.462856 0-183.992501-82.5716-183.992501-184.077435L86.743108 232.744855c0-101.461833 82.528622-183.992501 183.992501-183.992501l528.793478 0c101.461833 0 183.993524 82.529645 183.993524 183.992501l0 528.753569C983.524658 863.003236 900.992967 945.57586 799.530111 945.57586zM270.735609 91.456968c-77.901231 0-141.28891 63.387679-141.28891 141.28891l0 528.752546c0 77.94114 63.387679 141.370775 141.28891 141.370775l528.793478 0c77.900208 0 141.287887-63.429635 141.287887-141.370775L940.816974 232.744855c0-77.900208-63.387679-141.287887-141.287887-141.287887L270.735609 91.456968 270.735609 91.456968zM204.64924 631.5632l0 79.260062c0 7.267073 5.944969 13.211043 13.210443 13.211043l409.510352 0 0 105.680149 211.362096-158.520123-211.362096-158.522122 0 105.680149-409.510352 0C210.594209 618.352157 204.64924 624.298126 204.64924 631.5632zM838.732132 393.782416l0-79.261061c0-7.265074-5.944969-13.210044-13.211043-13.210044L416.010337 301.311311 416.010337 195.631362l-211.361097 158.520123 211.361097 158.520523 0-105.680549 409.510752 0C832.787162 406.99146 838.732132 401.04749 838.732132 393.782416z" fill="#272636"></path></g></g></svg>