<?xml version="1.0" standalone="no"?><!DOCTYPE svg PUBLIC "-//W3C//DTD SVG 1.1//EN" "http://www.w3.org/Graphics/SVG/1.1/DTD/svg11.dtd"><svg width="200" height="200" viewBox="0 0 200 200" version="1.1" xmlns="http://www.w3.org/2000/svg" xmlns:xlink="http://www.w3.org/1999/xlink"><defs><style type="text/css"><![CDATA[
@font-face { font-family: ifont; src: url("//at.alicdn.com/t/font_1442373896_4754455.eot?#iefix") format("embedded-opentype"), url("//at.alicdn.com/t/font_1442373896_4754455.woff") format("woff"), url("//at.alicdn.com/t/font_1442373896_4754455.ttf") format("truetype"), url("//at.alicdn.com/t/font_1442373896_4754455.svg#ifont") format("svg"); }

]]></style></defs><g class="transform-group"><g transform="scale(0.1953125, 0.1953125)"><path d="M429.8 821.5c-3.2-4.7-7-9.1-11.3-13.4-8.6-8.6-18.3-15-29-19.3-11.5-4.3-23.3-6.5-35.4-6.5l0 0c-2.9 0-5.9 0.2-9.1 0.6-3.2 0.3-6.3 0.7-9.1 1.1-2.9 0.4-5.7 1.1-8.6 2.2-2.9 1.1-5.7 2-8.6 2.7-3.6 1.4-7.2 3.2-10.8 5.4l-8.6 6.5c-3.6 2.2-6.8 4.7-9.7 7.5-4.3 4.3-8.1 8.8-11.3 13.4-3.2 4.6-5.9 9.5-8 14.5-4.3 11.5-6.5 23.1-6.5 34.9 0 11.8 2.2 23.1 6.5 33.8 4.3 10 10.8 19.7 19.3 29 8.6 7.9 18.3 14.3 29 19.3 10.7 4.3 22.5 6.5 35.4 6.5 12.2 0 23.8-2.3 34.9-7 11.1-4.7 20.9-10.9 29.5-18.8 8.6-9.3 15-19 19.3-29 5-10.7 7.5-22 7.5-33.8 0-11.8-2.5-23.5-7.5-34.9C435.7 831 433 826.2 429.8 821.5zM986.6 263.6c-2.2-3.6-5-6.8-8.6-9.7-3.6-2.9-7.9-5.4-12.9-7.5-10-5-24.3-7.5-43-7.5l-0.1 0L256.3 238.9l-5.4-36.5-4.3-27.9 0-5.4c-1.4-7.9-2.5-13.2-3.2-16.1l-5.4-17.2c-1.4-5.7-4.3-11.8-8.6-18.3-2.9-2.9-5.9-5.4-9.1-7.5-3.2-2.2-6.6-4.3-10.2-6.5-7.9-3.6-18.2-5.4-31.1-5.4L80.2 98.1c-7.2 0-13.6 1.1-19.3 3.2-5.7 2.2-11.1 5-16.1 8.6-8.6 8.6-12.9 19.3-12.9 32.2 0 2.9 0.2 6.1 0.5 9.7 0.4 3.6 0.9 7.2 1.6 10.8 0.7 3.6 2 7.2 3.7 10.8 1.8 3.6 3.4 7.5 4.8 11.8 5 6.4 10.7 12.2 17.2 17.2 5.7 4.3 13.6 6.5 23.6 6.5l73 0 41.9 215.8 16.1 82.7 14 74.1 10.8 54.8 5.4 27.9c1.4 7.1 3.9 17.5 7.5 31.1 2.2 5.7 4.5 11.1 7 16.1 2.5 5 5.2 9.6 8 14 5.7 9.3 12.9 16.8 21.5 22.5 2.8 2.2 5.9 3.8 9.1 4.8 3.3 1.1 6.8 2 10.8 2.7 3.9 0.7 8 1.1 12.3 1.1l510.1 0c18.6 0 30.8-4.7 36.5-14 6.4-9.3 9.7-20.4 9.7-33.3 0-26.5-15.8-39.7-47.2-39.7l-489.7 0-15.1-85.9 511.2 0c18.6 0 34.4-5 47.3-15 6.5-5 12.4-12 17.7-20.9 5.4-9 10.2-19.5 14.5-31.7 2.2-6.4 7.9-23.3 17.2-50.5l22.5-63.4 20.4-59.1 12.9-35.4c0.7-2.2 1.3-4.3 1.6-6.5 0.3-2.2 0.7-4.5 1.1-7 0.4-2.5 0.5-5.2 0.5-8C992.7 278.3 990.9 270.8 986.6 263.6zM823.4 810.2c-7.9-8.6-17.5-15-29-19.3-5.7-2.2-11.6-3.8-17.7-4.8-6.1-1.1-12-1.6-17.7-1.6l0 0c-4.3 0-8.4 0.2-12.3 0.5-3.9 0.4-7.9 1.1-11.8 2.2-3.9 1-7.7 2.3-11.3 3.7-5 2.2-10 4.8-15.1 8-5 3.2-9.3 7-12.9 11.3-8.6 8.6-15 17.9-19.3 27.9-2.9 5.7-4.8 11.5-5.9 17.2-1.1 5.7-1.6 11.5-1.6 17.2 0 12.2 2.5 23.6 7.5 34.4 4.3 10 10.8 19.7 19.3 29 7.2 7.1 16.5 13.2 27.9 18.2 10.7 5 22.6 7.5 35.4 7.5 12.9 0 24.7-2.5 35.4-7.5 11.5-4.3 21.1-10.4 29-18.2 8.6-9.3 15.4-19 20.4-29 2.2-5 3.8-10.5 4.8-16.6 1.1-6.1 1.6-12 1.6-17.7 0-12.2-2.2-23.6-6.5-34.4C838.8 828.1 832 818.8 823.4 810.2z" fill="#272636"></path></g></g></svg>