<?xml version="1.0" standalone="no"?><!DOCTYPE svg PUBLIC "-//W3C//DTD SVG 1.1//EN" "http://www.w3.org/Graphics/SVG/1.1/DTD/svg11.dtd"><svg width="200" height="200" viewBox="0 0 200 200" version="1.1" xmlns="http://www.w3.org/2000/svg" xmlns:xlink="http://www.w3.org/1999/xlink"><defs><style type="text/css"><![CDATA[
@font-face { font-family: ifont; src: url("//at.alicdn.com/t/font_1442373896_4754455.eot?#iefix") format("embedded-opentype"), url("//at.alicdn.com/t/font_1442373896_4754455.woff") format("woff"), url("//at.alicdn.com/t/font_1442373896_4754455.ttf") format("truetype"), url("//at.alicdn.com/t/font_1442373896_4754455.svg#ifont") format("svg"); }

]]></style></defs><g class="transform-group"><g transform="scale(0.1953125, 0.1953125)"><path d="M810.666667 810.666667 213.333333 810.666667 213.333333 213.333333l298.666667 0L512 128 213.333333 128C165.973333 128 128 166.4 128 213.333333l0 597.333333c0 46.933333 37.973333 85.333333 85.333333 85.333333l597.333333 0c46.933333 0 85.333333-38.4 85.333333-85.333333l0-298.666667-85.333333 0L810.666667 810.666667zM597.333333 128l0 85.333333 153.173333 0-419.413333 419.413333 60.16 60.16L810.666667 273.493333 810.666667 426.666667l85.333333 0L896 128 597.333333 128z" fill="#272636"></path></g></g></svg>