<?xml version="1.0" standalone="no"?><!DOCTYPE svg PUBLIC "-//W3C//DTD SVG 1.1//EN" "http://www.w3.org/Graphics/SVG/1.1/DTD/svg11.dtd"><svg width="200" height="200" viewBox="0 0 200 200" version="1.1" xmlns="http://www.w3.org/2000/svg" xmlns:xlink="http://www.w3.org/1999/xlink"><defs><style type="text/css"><![CDATA[
@font-face { font-family: ifont; src: url("//at.alicdn.com/t/font_1442373896_4754455.eot?#iefix") format("embedded-opentype"), url("//at.alicdn.com/t/font_1442373896_4754455.woff") format("woff"), url("//at.alicdn.com/t/font_1442373896_4754455.ttf") format("truetype"), url("//at.alicdn.com/t/font_1442373896_4754455.svg#ifont") format("svg"); }

]]></style></defs><g class="transform-group"><g transform="scale(0.1953125, 0.1953125)"><path d="M170.666667 256 85.333333 256l0 597.333333c0 46.933333 38.4 85.333333 85.333333 85.333333l597.333333 0 0-85.333333L170.666667 853.333333 170.666667 256zM853.333333 85.333333 341.333333 85.333333C294.4 85.333333 256 123.733333 256 170.666667l0 512c0 46.933333 38.4 85.333333 85.333333 85.333333l512 0c46.933333 0 85.333333-38.4 85.333333-85.333333L938.666667 170.666667C938.666667 123.733333 900.266667 85.333333 853.333333 85.333333zM810.666667 469.333333 384 469.333333 384 384l426.666667 0L810.666667 469.333333zM640 640 384 640l0-85.333333 256 0L640 640zM810.666667 298.666667 384 298.666667 384 213.333333l426.666667 0L810.666667 298.666667z" fill="#272636"></path></g></g></svg>