<?xml version="1.0" standalone="no"?><!DOCTYPE svg PUBLIC "-//W3C//DTD SVG 1.1//EN" "http://www.w3.org/Graphics/SVG/1.1/DTD/svg11.dtd"><svg width="200" height="200" viewBox="0 0 200 200" version="1.1" xmlns="http://www.w3.org/2000/svg" xmlns:xlink="http://www.w3.org/1999/xlink"><defs><style type="text/css"><![CDATA[
@font-face { font-family: ifont; src: url("//at.alicdn.com/t/font_1442373896_4754455.eot?#iefix") format("embedded-opentype"), url("//at.alicdn.com/t/font_1442373896_4754455.woff") format("woff"), url("//at.alicdn.com/t/font_1442373896_4754455.ttf") format("truetype"), url("//at.alicdn.com/t/font_1442373896_4754455.svg#ifont") format("svg"); }

]]></style></defs><g class="transform-group"><g transform="scale(0.1953125, 0.1953125)"><path d="M512 85.333333C276.48 85.333333 85.333333 276.48 85.333333 512s191.146667 426.666667 426.666667 426.666667 426.666667-191.146667 426.666667-426.666667S747.52 85.333333 512 85.333333zM512 853.333333c-188.16 0-341.333333-153.173333-341.333333-341.333333s153.173333-341.333333 341.333333-341.333333 341.333333 153.173333 341.333333 341.333333S700.16 853.333333 512 853.333333zM469.376 767.530667l85.12 0 0-84.352-85.12 0L469.376 767.530667zM514.090667 280.704c-43.562667 0-78.72 12.885333-105.514667 38.741333C381.781333 345.258667 367.317333 376.661333 365.269333 413.653333l73.301333 9.898667c5.12-25.813333 14.464-45.056 28.117333-57.642667 13.653333-12.586667 30.592-18.901333 50.858667-18.901333 21.034667 0 37.76 6.058667 50.176 18.133333 12.373333 12.074667 18.602667 26.581333 18.602667 43.52 0 12.202667-3.498667 23.338667-10.496 33.450667-4.565333 6.4-18.474667 19.925333-41.770667 40.576-23.296 20.650667-38.826667 39.253333-46.592 55.765333-7.765333 16.554667-11.648 37.589333-11.648 63.232 0 2.474667 0.085333 25.429333 0.298667 36.778667l72.448 0c-0.384-23.978667 1.450667-56.576 5.546667-65.877333 4.053333-9.301333 14.549333-21.589333 31.36-36.864 32.597333-29.568 53.845333-52.906667 63.744-70.016 9.984-17.152 14.933333-35.328 14.933333-54.528 0-34.688-13.568-65.109333-40.618667-91.264C596.394667 293.76 559.914667 280.704 514.090667 280.704z" fill="#272636"></path></g></g></svg>