<?xml version="1.0" standalone="no"?><!DOCTYPE svg PUBLIC "-//W3C//DTD SVG 1.1//EN" "http://www.w3.org/Graphics/SVG/1.1/DTD/svg11.dtd"><svg width="200" height="200" viewBox="0 0 200 200" version="1.1" xmlns="http://www.w3.org/2000/svg" xmlns:xlink="http://www.w3.org/1999/xlink"><defs><style type="text/css"><![CDATA[
@font-face { font-family: ifont; src: url("//at.alicdn.com/t/font_1442373896_4754455.eot?#iefix") format("embedded-opentype"), url("//at.alicdn.com/t/font_1442373896_4754455.woff") format("woff"), url("//at.alicdn.com/t/font_1442373896_4754455.ttf") format("truetype"), url("//at.alicdn.com/t/font_1442373896_4754455.svg#ifont") format("svg"); }

]]></style></defs><g class="transform-group"><g transform="scale(0.1953125, 0.1953125)"><path d="M823.594667 513.536c39.765333 0 76.586667 10.794667 109.354667 28.245333L932.949333 258.858667c0-46.976-38.357333-85.418667-85.248-85.418667L165.717333 173.44c-46.890667 0-84.821333 38.442667-84.821333 85.418667l-0.426667 512.469333c0 46.976 38.357333 85.418667 85.248 85.418667l454.442667 0c-18.389333-33.152-29.781333-70.698667-29.781333-111.274667C590.378667 617.386667 694.784 513.536 823.594667 513.536zM165.717333 344.277333 165.717333 258.858667l340.992 213.546667 340.992-213.546667 0 85.418667-340.992 213.546667L165.717333 344.277333zM827.093333 557.354667c-105.856 0-191.573333 86.016-191.573333 192.170667 0 106.197333 85.717333 192.170667 191.573333 192.170667 105.856 0 191.573333-86.016 191.573333-192.170667C1018.666667 643.370667 932.949333 557.354667 827.093333 557.354667zM848.810667 856.192l-42.538667 0 0-42.666667 42.538667 0L848.810667 856.192zM848.810667 770.858667l-45.696 2.005333 3.157333-130.005333 42.538667 0L848.810667 770.858667z" fill="#272636"></path></g></g></svg>