<?xml version="1.0" standalone="no"?><!DOCTYPE svg PUBLIC "-//W3C//DTD SVG 1.1//EN" "http://www.w3.org/Graphics/SVG/1.1/DTD/svg11.dtd"><svg width="200" height="200" viewBox="0 0 200 200" version="1.1" xmlns="http://www.w3.org/2000/svg" xmlns:xlink="http://www.w3.org/1999/xlink"><defs><style type="text/css"><![CDATA[
@font-face { font-family: ifont; src: url("//at.alicdn.com/t/font_1442373896_4754455.eot?#iefix") format("embedded-opentype"), url("//at.alicdn.com/t/font_1442373896_4754455.woff") format("woff"), url("//at.alicdn.com/t/font_1442373896_4754455.ttf") format("truetype"), url("//at.alicdn.com/t/font_1442373896_4754455.svg#ifont") format("svg"); }

]]></style></defs><g class="transform-group"><g transform="scale(0.1953125, 0.1953125)"><path d="M558.890667 853.333333 292.48 853.333333l0-341.333333L292.48 384 292.48 170.666667l427.392 0 0 393.898667C740.266667 558.762667 761.386667 554.666667 783.616 554.666667c7.424 0 14.464 1.536 21.717333 2.176L805.333333 128c0-46.933333-38.442667-85.333333-85.461333-85.333333L292.48 42.666667C245.461333 42.666667 206.976 81.066667 206.976 128l0 256 0 128 0 384c0 46.933333 38.442667 85.333333 85.461333 85.333333l356.821333 0C605.738667 950.826667 573.824 905.728 558.890667 853.333333zM783.616 597.333333c-106.026667 0-192 85.973333-192 192s85.973333 192 192 192 192-85.973333 192-192S889.642667 597.333333 783.616 597.333333zM804.949333 896l-42.666667 0 0-42.666667 42.666667 0L804.949333 896zM804.949333 810.666667l-42.666667 0 0-128 42.666667 0L804.949333 810.666667z" fill="#272636"></path></g></g></svg>